<svg width="214" height="63" viewBox="0 0 214 63" fill="none" xmlns="http://www.w3.org/2000/svg">
<path d="M27.8517 37.4438H23.7067V41.6637H27.8517V37.4438Z" fill="#306FD5"/>
<path d="M33.833 37.4438H29.6656V41.6637H33.833V37.4438Z" fill="#306FD5"/>
<path d="M28.7212 5.00397C21.3832 5.00397 15.1471 7.61235 9.96033 12.7991C4.76607 17.9859 2.16517 24.2295 2.16517 31.5375C2.16517 35.7798 3.03466 39.6924 4.82605 43.1927V43.2976C4.82605 43.2976 4.80354 43.3501 4.80354 43.425L1.83542 46.3632L5.44062 49.9685L28.6762 26.7329L52.0166 50.0509L55.7268 46.3707L53.3508 43.9947L52.7587 43.4325C52.7062 43.3801 52.7062 43.3276 52.6837 43.3276V43.3051C52.6837 43.3051 52.7062 43.2302 52.7062 43.2002C54.4452 39.6474 55.3146 35.7648 55.3146 31.5449C55.3146 24.2295 52.7062 17.9934 47.5419 12.8066C42.3477 7.61984 36.0666 5.01147 28.7287 5.01147L28.7212 5.00397ZM9.03842 39.1302C9.01593 39.1827 8.96346 39.1827 8.93348 39.1827H8.83603C8.78357 39.1302 8.7611 39.0778 8.7611 39.0778C7.89164 36.7242 7.43441 34.2208 7.43441 31.5375C7.43441 25.6611 9.53311 20.6467 13.723 16.5018C17.8379 12.3119 22.8523 10.2432 28.7287 10.2432C34.605 10.2432 39.6718 12.3119 43.8392 16.5018C47.9766 20.6467 50.0229 25.6536 50.0229 31.5375C50.0229 34.1683 49.6407 36.6493 48.8761 38.9503C48.8462 38.9728 48.8236 39.0253 48.8236 39.0778L48.7187 39.3326L44.8586 35.495V26.9278H39.7468V30.3757L28.8036 19.41L9.03842 39.1227V39.1302Z" fill="#306FD5"/>
<path d="M44.4689 45.9585C44.3415 46.0859 44.214 46.1908 44.109 46.3182L44.0791 46.3407C42.4676 47.9222 40.886 49.1815 39.3495 50.0509C36.2015 51.8123 32.7011 52.7118 28.841 52.7118C24.9809 52.7118 21.5331 51.8198 18.4375 50.0509C16.8035 49.1065 15.2671 47.9297 13.8355 46.5206C13.783 46.4682 13.7305 46.4157 13.708 46.3707C13.4756 46.1683 13.2957 45.9585 13.1158 45.7786L9.40569 49.4888C9.56309 49.6911 9.73546 49.8485 9.94533 50.0509C9.99779 50.1034 10.0428 50.1559 10.1252 50.2008C15.2895 55.3876 21.5256 57.996 28.841 57.996C36.1565 57.996 42.4376 55.3876 47.6544 50.2008C47.7069 50.1484 47.7593 50.0959 47.7818 50.0509C47.8867 49.946 47.9842 49.8186 48.0891 49.6911L44.4614 45.9585H44.4689Z" fill="#306FD5"/>
<path d="M33.833 47.6974V43.4775H29.6656V47.6974H33.833Z" fill="#306FD5"/>
<path d="M27.8517 47.6974V43.4775H23.7067V47.6974H27.8517Z" fill="#306FD5"/>
<path d="M72.2471 41.1546V24.399H66.1669V21.3169H81.8577V24.399H75.7775V41.1546H72.2471Z" fill="#303030"/>
<path d="M83.8935 33.085H90.7862C90.7862 31.3478 89.8056 29.8348 87.6201 29.8348C85.6307 29.8348 84.0336 31.2077 83.8935 33.085ZM94.1485 34.5981C94.1485 34.9063 94.1485 35.1865 94.1205 35.4947H83.8935C84.0336 37.4 85.7708 38.801 87.7321 38.801C89.4133 38.801 90.5341 38.1285 91.2906 37.0638L93.5321 38.857C92.2152 40.6502 90.3099 41.5469 87.7601 41.5469C83.6133 41.5469 80.5312 38.885 80.5312 34.514C80.5312 30.171 83.5853 27.3131 87.6481 27.3131C91.4027 27.3131 94.1485 29.7507 94.1485 34.5981Z" fill="#303030"/>
<path d="M106.959 29.3585L104.774 31.2918C104.186 30.5072 103.065 29.8348 101.832 29.8348C100.767 29.8348 99.6745 30.2271 99.6745 31.2918C99.6745 32.3285 100.711 32.6087 102.588 33.057C104.578 33.5333 106.931 34.43 106.931 37.0638C106.931 40.342 104.27 41.5469 101.328 41.5469C99.2542 41.5469 97.0967 40.7623 95.8078 39.3333L98.0213 37.2599C98.7498 38.2126 100.011 38.9411 101.468 38.9411C102.448 38.9411 103.625 38.5488 103.625 37.344C103.625 36.2232 102.588 35.887 100.543 35.4106C98.5537 34.9343 96.5643 34.1217 96.5643 31.6C96.5643 28.6019 99.2542 27.3131 101.916 27.3131C103.849 27.3131 105.867 27.9855 106.959 29.3585Z" fill="#303030"/>
<path d="M110.275 30.3952H107.922V27.7053H110.275V23.8106H113.581V27.7053H116.944V30.3952H113.581V36.6435C113.581 37.8483 113.862 38.7169 115.347 38.7169C115.795 38.7169 116.383 38.6328 116.776 38.4367L116.888 41.0705C116.299 41.2947 115.403 41.4348 114.646 41.4348C111.088 41.4348 110.275 39.2493 110.275 36.6715V30.3952Z" fill="#303030"/>
<path d="M126.55 41.1546V21.3169H133.022C137.562 21.3169 140.504 22.914 140.504 27.0609C140.504 31.4319 137.001 32.9449 132.798 32.9449H130.08V41.1546H126.55ZM130.08 29.9749H132.546C134.844 29.9749 136.945 29.4145 136.945 27.0609C136.945 24.7073 134.844 24.287 132.658 24.287H130.08V29.9749Z" fill="#303030"/>
<path d="M142.197 41.1546V27.7053H145.42V29.9469H145.476C146.204 28.4058 147.633 27.3131 149.398 27.3131C149.651 27.3131 149.987 27.3411 150.211 27.3971V30.4792C149.763 30.3672 149.482 30.3391 149.174 30.3391C146.148 30.3391 145.56 32.9729 145.56 33.9536V41.1546H142.197Z" fill="#303030"/>
<path d="M151.127 34.3739C151.127 30.143 154.377 27.3131 158.44 27.3131C162.502 27.3131 165.753 30.143 165.753 34.3739C165.753 38.6048 162.502 41.5469 158.44 41.5469C154.377 41.5469 151.127 38.6048 151.127 34.3739ZM154.545 34.3739C154.545 36.4754 155.778 38.7449 158.44 38.7449C161.102 38.7449 162.334 36.4754 162.334 34.3739C162.334 32.2725 161.102 30.0589 158.44 30.0589C155.778 30.0589 154.545 32.2725 154.545 34.3739Z" fill="#303030"/>
<path d="M169.069 27.7053H172.431V41.9671C172.431 45.1894 171.563 47.8792 167.556 47.8792C166.995 47.8792 166.379 47.7952 166.043 47.7111L166.323 44.8531C166.631 44.9372 166.995 44.9652 167.248 44.9652C168.845 44.9652 169.069 43.6483 169.069 42.1072V27.7053ZM168.593 23.1382C168.593 22.0734 169.489 21.1208 170.722 21.1208C171.955 21.1208 172.907 21.9894 172.907 23.1382C172.907 24.287 171.955 25.1556 170.722 25.1556C169.489 25.1556 168.593 24.2029 168.593 23.1382Z" fill="#303030"/>
<path d="M179.088 33.085H185.981C185.981 31.3478 185 29.8348 182.814 29.8348C180.825 29.8348 179.228 31.2077 179.088 33.085ZM189.343 34.5981C189.343 34.9063 189.343 35.1865 189.315 35.4947H179.088C179.228 37.4 180.965 38.801 182.927 38.801C184.608 38.801 185.728 38.1285 186.485 37.0638L188.727 38.857C187.41 40.6502 185.504 41.5469 182.955 41.5469C178.808 41.5469 175.726 38.885 175.726 34.514C175.726 30.171 178.78 27.3131 182.843 27.3131C186.597 27.3131 189.343 29.7507 189.343 34.5981Z" fill="#303030"/>
<path d="M204.087 29.4145L201.79 31.4319C201.257 30.6754 200.109 30.115 199.016 30.115C196.55 30.115 195.317 32.3285 195.317 34.43C195.317 36.5314 196.578 38.7449 199.128 38.7449C200.165 38.7449 201.313 38.3246 201.958 37.5401L204.059 39.6696C202.938 40.8744 201.089 41.5469 199.1 41.5469C195.121 41.5469 191.815 38.913 191.815 34.43C191.815 30.0589 195.065 27.3131 199.016 27.3131C200.977 27.3131 203.023 28.0976 204.087 29.4145Z" fill="#303030"/>
<path d="M206.701 30.3952H204.347V27.7053H206.701V23.8106H210.007V27.7053H213.37V30.3952H210.007V36.6435C210.007 37.8483 210.287 38.7169 211.772 38.7169C212.221 38.7169 212.809 38.6328 213.201 38.4367L213.313 41.0705C212.725 41.2947 211.828 41.4348 211.072 41.4348C207.513 41.4348 206.701 39.2493 206.701 36.6715V30.3952Z" fill="#303030"/>
</svg>
