<svg width="64" height="64" viewBox="0 0 64 64" fill="none" xmlns="http://www.w3.org/2000/svg">
<g clip-path="url(#clip0_486_43)">
<g clip-path="url(#clip1_486_43)">
<path d="M7.52941 39.9059C11.6878 39.9059 15.0588 36.5348 15.0588 32.3765C15.0588 28.2181 11.6878 24.847 7.52941 24.847C3.37103 24.847 0 28.2181 0 32.3765C0 36.5348 3.37103 39.9059 7.52941 39.9059Z" fill="#9BD0FF"/>
<path d="M43.6706 18.0706C47.829 18.0706 51.2 14.6996 51.2 10.5412C51.2 6.38281 47.829 3.01178 43.6706 3.01178C39.5122 3.01178 36.1412 6.38281 36.1412 10.5412C36.1412 14.6996 39.5122 18.0706 43.6706 18.0706Z" fill="#9BD0FF"/>
<path d="M44.4235 60.2353C48.5819 60.2353 51.9529 56.8643 51.9529 52.7059C51.9529 48.5475 48.5819 45.1765 44.4235 45.1765C40.2651 45.1765 36.8941 48.5475 36.8941 52.7059C36.8941 56.8643 40.2651 60.2353 44.4235 60.2353Z" fill="#9BD0FF"/>
<path d="M31.6235 41.4117C37.0294 41.4117 41.4118 37.0294 41.4118 31.6235C41.4118 26.2176 37.0294 21.8353 31.6235 21.8353C26.2176 21.8353 21.8353 26.2176 21.8353 31.6235C21.8353 37.0294 26.2176 41.4117 31.6235 41.4117Z" fill="#306FD5"/>
<path d="M23.9594 47.345L27.9507 40.6928C27.2444 40.4066 26.5827 40.0393 25.9697 39.6049L21.9429 46.315C22.6718 46.5559 23.3487 46.906 23.9594 47.345Z" fill="#0C1D3E"/>
<path d="M23.2065 16.655C22.5952 17.0933 21.919 17.4434 21.1902 17.685L25.1544 24.2906C25.7199 23.7914 26.3381 23.3509 27.009 22.9911L23.2065 16.655Z" fill="#0C1D3E"/>
<path d="M49.0353 32.753C48.9796 32.3833 48.9412 32.0083 48.9412 31.6236C48.9412 31.2388 48.9796 30.8631 49.0353 30.4941H41.341C41.3847 30.8653 41.4118 31.2411 41.4118 31.6236C41.4118 32.0061 41.3847 32.3818 41.341 32.753H49.0353Z" fill="#0C1D3E"/>
<path d="M18.8235 18.0706C22.9819 18.0706 26.3529 14.6996 26.3529 10.5412C26.3529 6.38281 22.9819 3.01178 18.8235 3.01178C14.6651 3.01178 11.2941 6.38281 11.2941 10.5412C11.2941 14.6996 14.6651 18.0706 18.8235 18.0706Z" fill="#306FD5"/>
<path d="M56.4706 39.1529C60.629 39.1529 64 35.7819 64 31.6235C64 27.4651 60.629 24.0941 56.4706 24.0941C52.3122 24.0941 48.9412 27.4651 48.9412 31.6235C48.9412 35.7819 52.3122 39.1529 56.4706 39.1529Z" fill="#306FD5"/>
<path d="M19.5765 60.9883C23.7348 60.9883 27.1059 57.6172 27.1059 53.4589C27.1059 49.3005 23.7348 45.9294 19.5765 45.9294C15.4181 45.9294 12.0471 49.3005 12.0471 53.4589C12.0471 57.6172 15.4181 60.9883 19.5765 60.9883Z" fill="#306FD5"/>
</g>
</g>
<defs>
<clipPath id="clip0_486_43">
<rect width="64" height="64" fill="white"/>
</clipPath>
<clipPath id="clip1_486_43">
<rect width="64" height="64" fill="white"/>
</clipPath>
</defs>
</svg>
