<svg width="65" height="64" viewBox="0 0 65 64" fill="none" xmlns="http://www.w3.org/2000/svg">
<path d="M59.8412 13.7721C59.8412 11.0987 57.6538 8.91138 54.9804 8.91138H18.5231C15.8497 8.91138 13.6624 11.0987 13.6624 13.7721V59.1392C13.6624 61.8126 15.8497 64 18.5231 64H46.0651L59.8372 51.038L59.8412 13.7721Z" fill="#F2F8FD"/>
<path d="M13.6624 13.7722C13.6624 11.0987 15.8497 8.91139 18.5231 8.91139H50.9298V4.86076C50.9298 2.18734 48.7424 0 46.069 0H9.61175C6.93833 0 4.75099 2.18734 4.75099 4.86076V50.2278C4.75099 52.9013 6.93833 55.0886 9.61175 55.0886H13.6624V13.7722Z" fill="#306FD5"/>
<path d="M50.9266 51.038H59.838L46.0659 64V55.8987C46.0659 53.2253 48.2532 51.038 50.9266 51.038Z" fill="#9BD0FF"/>
<path d="M25.8143 30.3797H47.6877C48.3594 30.3797 48.9029 29.8353 48.9029 29.1645C48.9029 28.493 48.3592 27.9493 47.6877 27.9493H25.8143C25.1428 27.9493 24.5991 28.493 24.5991 29.1645C24.5991 29.8353 25.1426 30.3797 25.8143 30.3797Z" fill="#0C1D3E"/>
<path d="M25.8143 22.2785H47.6877C48.3594 22.2785 48.9029 21.734 48.9029 21.0633C48.9029 20.3918 48.3592 19.8481 47.6877 19.8481H25.8143C25.1428 19.8481 24.5991 20.3918 24.5991 21.0633C24.5991 21.734 25.1426 22.2785 25.8143 22.2785Z" fill="#0C1D3E"/>
<path d="M25.8143 38.481H47.6877C48.3594 38.481 48.9029 37.9365 48.9029 37.2658C48.9029 36.5943 48.3592 36.0506 47.6877 36.0506H25.8143C25.1428 36.0506 24.5991 36.5943 24.5991 37.2658C24.5991 37.9365 25.1426 38.481 25.8143 38.481Z" fill="#0C1D3E"/>
<path d="M25.8143 46.5822H37.9662C38.6377 46.5822 39.1814 46.0378 39.1814 45.367C39.1814 44.6954 38.6377 44.1519 37.9662 44.1519H25.8143C25.1428 44.1519 24.5991 44.6954 24.5991 45.367C24.5991 46.0378 25.1426 46.5822 25.8143 46.5822Z" fill="#0C1D3E"/>
</svg>
