<svg width="65" height="64" viewBox="0 0 65 64" fill="none" xmlns="http://www.w3.org/2000/svg">
<rect width="65" height="64" fill="#F5F5F5"/>
<g clip-path="url(#clip0_0_1)">
<rect width="1366" height="765" transform="translate(-849 -544)" fill="white"/>
<rect width="1366" height="255" transform="translate(-849 -87)" fill="white"/>
<g clip-path="url(#clip1_0_1)">
<path d="M62.2114 50.7539C62.1266 49.8988 61.3632 49.2755 60.5081 49.3611L56.8798 49.726C59.5814 45.2637 61.1391 40.0256 61.1391 34.4336C61.1391 27.5639 58.7908 21.2271 54.856 16.2092C50.9212 11.1891 45.3984 7.47296 39.0383 5.81786C38.2058 5.6016 37.3561 6.10037 37.1405 6.9321C36.9242 7.76383 37.423 8.61349 38.2547 8.82989C43.9387 10.3083 48.8833 13.6338 52.4066 18.1288C55.9282 22.6252 58.0267 28.2765 58.0275 34.4336C58.0267 39.4577 56.6292 44.1432 54.2009 48.1411L52.9856 44.4918C52.714 43.6764 51.8332 43.2352 51.017 43.5068C50.2023 43.7783 49.7619 44.6591 50.0327 45.4745L52.6323 53.2802L60.8201 52.457C61.6737 52.3714 62.2978 51.609 62.2114 50.7539Z" fill="#0C1D3E"/>
<path d="M51.4124 54.267C50.8391 53.6266 49.8548 53.5722 49.2151 54.1455C44.5287 58.3402 38.3554 60.8877 31.5713 60.8884C21.7829 60.8899 13.2536 55.5648 8.67541 47.664L12.895 47.9394C13.7532 47.9955 14.4931 47.3457 14.5492 46.4882C14.6053 45.6301 13.9564 44.8901 13.0988 44.8341L4.88849 44.2979L2.56274 52.1915C2.31914 53.0163 2.79146 53.8816 3.6162 54.1243C4.44093 54.367 5.30625 53.8955 5.54894 53.0708H5.54818L6.44921 50.0121C11.6631 58.4062 20.962 63.9982 31.5711 63.9997C39.142 64.0005 46.063 61.1472 51.2909 56.4632C51.9307 55.8908 51.9858 54.9072 51.4124 54.267Z" fill="#306FD5"/>
<path d="M35.5807 6.29259L29.7755 0.458478C29.1694 -0.150768 28.1843 -0.153048 27.5751 0.453007C26.9658 1.05906 26.9643 2.04413 27.5704 2.65337H27.5696L29.8261 4.92152C14.3095 5.8265 2.00485 18.6906 2.00409 34.4336C2.00409 36.8783 2.30134 39.2561 2.86302 41.5313C3.06848 42.3654 3.91192 42.8758 4.74592 42.6697C5.58008 42.4635 6.0904 41.6208 5.88433 40.7868C5.38252 38.7521 5.11719 36.6256 5.11719 34.4337C5.11795 27.1237 8.07619 20.52 12.8661 15.727C17.4895 11.1052 23.8037 8.19753 30.8079 7.99754L28.5406 11.5635C28.0784 12.2887 28.2931 13.2504 29.0176 13.7117C29.7435 14.1731 30.7052 13.9584 31.1666 13.2332L35.5807 6.29259Z" fill="#9BD0FF"/>
<path d="M36.158 21.6239C36.0568 21.2092 35.6321 20.7914 35.2141 20.6965L32.4986 20.2857C32.0714 20.2553 31.5424 20.5308 31.3222 20.898C31.3222 20.898 30.3107 22.5848 28.9071 22.935C27.5018 23.2836 25.8197 22.2658 25.8197 22.2658C25.4531 22.0441 24.8564 22.0479 24.4947 22.2751L22.2849 23.9083C21.9612 24.1876 21.7806 24.7557 21.8834 25.1712C21.8834 25.1712 22.3627 27.0783 21.6158 28.3177C20.8696 29.5557 18.9593 30.0265 18.9593 30.0265C18.5431 30.1292 18.1268 30.5547 18.0311 30.9719L17.6211 33.6867C17.5924 34.1138 17.8662 34.6438 18.2334 34.8631C18.2334 34.8631 19.9202 35.8746 20.2666 37.2791C20.6159 38.6811 19.5982 40.365 19.5982 40.365C19.3765 40.7314 19.3803 41.3274 19.6075 41.6907L21.2415 43.899C21.5208 44.2235 22.0888 44.404 22.5043 44.3005C22.5043 44.3005 24.4129 43.8235 25.6516 44.5689C26.8903 45.3151 27.3604 47.2276 27.3604 47.2276C27.4631 47.6431 27.8886 48.0601 28.305 48.1558L31.0205 48.5651C31.4477 48.5947 31.9767 48.32 32.1969 47.9528C32.1969 47.9528 33.21 46.2682 34.612 45.9196C36.0165 45.5687 37.7002 46.5887 37.7002 46.5887C38.0668 46.8112 38.6626 46.8074 39.0252 46.5802L41.2335 44.9478C41.5587 44.6692 41.7385 44.1011 41.635 43.6856C41.635 43.6856 41.158 41.7746 41.9026 40.5352C42.652 39.2957 44.5621 38.8264 44.5621 38.8264C44.9783 38.7237 45.3955 38.2997 45.4903 37.8818L45.9003 35.167C45.9307 34.7398 45.656 34.2108 45.2896 33.9906C45.2896 33.9906 43.5995 32.9776 43.2518 31.5738C42.9032 30.1702 43.9234 28.4864 43.9234 28.4864C44.1436 28.1208 44.1389 27.524 43.9124 27.1606L42.2784 24.9524C41.9999 24.6279 41.4318 24.4481 41.0156 24.5516C41.0156 24.5516 39.1078 25.0309 37.8691 24.2832C36.6273 23.5349 36.158 21.6239 36.158 21.6239Z" fill="#306FD5"/>
<path d="M34.6106 29.6895C37.2241 31.2667 38.0676 34.6623 36.4951 37.2759C34.918 39.891 31.5239 40.7344 28.9088 39.1588C26.2952 37.5839 25.4518 34.1875 27.0242 31.574C28.6006 28.9598 31.9985 28.1179 34.6106 29.6895Z" fill="#0C1D3E"/>
<path d="M36.0709 30.9664C37.4785 32.7225 37.7229 35.2373 36.4949 37.2758C35.4555 38.9986 33.6285 39.9525 31.7549 39.9525C30.7838 39.9525 29.8011 39.6966 28.9086 39.1589C28.6744 39.0173 28.4542 38.8609 28.2473 38.692L35.4049 45.8481C36.5782 45.9088 37.6979 46.5866 37.6979 46.5866C37.8785 46.6963 38.1142 46.7507 38.3516 46.7507C38.5952 46.7507 38.8394 46.6931 39.0231 46.5779L41.2314 44.9454C41.496 44.719 41.6648 44.3012 41.6616 43.93C41.6616 43.8444 41.6523 43.7611 41.6329 43.6833C41.6329 43.6833 41.482 43.0788 41.4827 42.3287C41.4827 41.7451 41.5745 41.0745 41.9005 40.5321C42.411 39.6855 43.4659 39.1984 44.0822 38.9744L36.0709 30.9664Z" fill="#306FD5"/>
</g>
</g>
<defs>
<clipPath id="clip0_0_1">
<rect width="1366" height="765" fill="white" transform="translate(-849 -544)"/>
</clipPath>
<clipPath id="clip1_0_1">
<rect width="64" height="64" fill="white" transform="translate(0.111755)"/>
</clipPath>
</defs>
</svg>
