<svg width="65" height="64" viewBox="0 0 65 64" fill="none" xmlns="http://www.w3.org/2000/svg">
<g clip-path="url(#clip0_486_25)">
<g clip-path="url(#clip1_486_25)">
<path d="M26.5617 52.6082C26.7403 52.2433 26.9195 51.9009 27.1059 51.6136L46.0269 21.716H46.0262L50.1721 15.1711C50.835 14.1252 52.0292 13.6183 53.1845 13.7612V10.0937H5.82538V51.366C5.82538 53.9272 7.92236 56.0242 10.4837 56.0242H25.3653C25.63 54.893 26.0663 53.6369 26.5617 52.6082Z" fill="#F2F8FD"/>
<path d="M26.0112 17.9801C26.0112 16.2714 24.6145 14.8746 22.9057 14.8746H15.1419C13.4331 14.8746 12.0364 16.2714 12.0364 17.9801V25.7439C12.0364 27.4527 13.4331 28.8495 15.1419 28.8495H22.9057C24.6145 28.8495 26.0112 27.4527 26.0112 25.7439V17.9801Z" fill="#306FD5"/>
<path d="M26.0112 36.6133C26.0112 34.9052 24.6137 33.5078 22.9057 33.5078H15.1419C13.4339 33.5078 12.0364 34.9052 12.0364 36.6133V44.3771C12.0364 46.0851 13.4339 47.4826 15.1419 47.4826H22.9057C24.6137 47.4826 26.0112 46.0851 26.0112 44.3771V36.6133Z" fill="#9BD0FF"/>
<path d="M53.1844 28.8588L36.1584 55.7634L36.5862 56.0227H48.526C51.0873 56.0227 53.1843 53.9257 53.1843 51.3644V28.8588" fill="#F2F8FD"/>
<path d="M23.9879 19.2099C24.1323 19.5857 24.0803 20.0251 23.8093 20.3605L19.7124 25.3985C19.5152 25.6399 19.2302 25.7929 18.9205 25.8225C18.7148 25.8426 18.5114 25.8023 18.3258 25.7177L21.4562 28.8488H22.9049C24.6137 28.8488 26.0104 27.4521 26.0104 25.7433V21.2318L23.9879 19.2099Z" fill="#306FD5"/>
<path d="M15.1722 23.1485L18.0627 25.5583C18.3018 25.7579 18.6116 25.8534 18.9207 25.8231C19.2297 25.7935 19.5154 25.6406 19.7125 25.3991L23.8094 20.3611C24.214 19.8619 24.1394 19.1291 23.6402 18.723C23.1403 18.3177 22.4082 18.393 22.0021 18.8914L18.6497 23.0147L16.6645 21.3595C16.17 20.9479 15.4347 21.0148 15.0239 21.5085C14.6116 22.0026 14.6776 22.737 15.1722 23.1485Z" fill="#0C1D3E"/>
<path d="M53.1845 0H5.82538V10.0929H53.1845V0Z" fill="#306FD5"/>
<path d="M46.3197 17.8986C46.3896 17.7861 46.5138 17.7216 46.6504 17.7209C46.7234 17.7216 46.7886 17.7388 46.8547 17.7806L48.0426 18.5329L49.2895 16.5648L48.0993 15.8118C47.6514 15.5284 47.1452 15.391 46.6506 15.3917C45.7547 15.391 44.868 15.8374 44.3501 16.6556L44.3509 16.6541L37.2657 27.8503C36.9218 28.3938 37.084 29.1127 37.6267 29.4574C38.1694 29.8013 38.8898 29.639 39.2338 29.0963L46.3182 17.9001L46.3197 17.8986Z" fill="#0C1D3E"/>
<path d="M46.0271 21.7162L54.3639 26.9948L35.4442 56.8931C35.2578 57.1803 35.0327 57.4909 34.7773 57.8101L26.5616 52.6083C26.7403 52.2435 26.9195 51.9019 27.1059 51.6137L46.0271 21.7162Z" fill="#0C1D3E"/>
<path d="M26.5617 52.6074L34.7758 57.8092C33.775 59.0591 32.2922 60.4178 31.1276 61.1242L26.9973 63.6086C25.5377 64.4937 24.4826 63.8261 24.6527 62.1258L25.134 57.3277C25.2737 55.9692 25.8637 54.0593 26.5617 52.6074Z" fill="#306FD5"/>
<path d="M57.5477 16.1641C58.9917 17.0724 59.4265 19.0057 58.5097 20.442L54.3638 26.9946L46.0262 21.7153L50.1721 15.1703C51.0883 13.7263 53.0136 13.2915 54.4576 14.2076L57.5477 16.1641Z" fill="#306FD5"/>
</g>
</g>
<defs>
<clipPath id="clip0_486_25">
<rect width="64" height="64" fill="white" transform="translate(0.407837)"/>
</clipPath>
<clipPath id="clip1_486_25">
<rect width="64" height="64" fill="white" transform="translate(0.407837)"/>
</clipPath>
</defs>
</svg>
