<svg width="65" height="64" viewBox="0 0 65 64" fill="none" xmlns="http://www.w3.org/2000/svg">
<g clip-path="url(#clip0_486_67)">
<path d="M32.7039 10.6667C18.63 10.6667 7.18011 22.1165 7.18011 36.1905C7.18011 50.2645 18.63 61.7143 32.7039 61.7143C46.7779 61.7143 58.2277 50.2645 58.2277 36.1905C58.2277 22.1165 46.7779 10.6667 32.7039 10.6667Z" fill="#F2F8FD"/>
<path d="M18.6285 24.4937L21.3225 27.187C21.769 27.6335 22.492 27.6335 22.9386 27.187C23.385 26.7406 23.385 26.0168 22.9386 25.5702L20.2446 22.8769C19.7981 22.4312 19.0743 22.4312 18.6285 22.8769C18.1821 23.3242 18.1821 24.0481 18.6285 24.4937Z" fill="#9BD0FF"/>
<path d="M14.0998 37.7158L17.9093 37.7143C18.5408 37.7143 19.0521 37.2022 19.0521 36.5714C19.0521 35.9399 18.5401 35.4286 17.9085 35.4286L14.099 35.4301C13.4682 35.4301 12.9569 35.9421 12.9569 36.5729C12.9569 37.2039 13.4688 37.7158 14.0998 37.7158Z" fill="#9BD0FF"/>
<path d="M20.2453 50.2666L22.9386 47.5718C23.385 47.1254 23.385 46.4016 22.9386 45.955C22.4922 45.5086 21.7684 45.5093 21.3225 45.955L18.6292 48.6498C18.1828 49.0962 18.1828 49.8201 18.6292 50.2666C19.0758 50.7131 19.7996 50.7131 20.2453 50.2666Z" fill="#9BD0FF"/>
<path d="M33.4658 54.7962V50.9851C33.4658 50.3536 32.9538 49.8423 32.323 49.8423C31.6922 49.8423 31.1801 50.3536 31.1801 50.9851V54.7962C31.1801 55.427 31.6922 55.939 32.323 55.939C32.9538 55.939 33.4658 55.4271 33.4658 54.7962Z" fill="#9BD0FF"/>
<path d="M46.0182 48.6506L43.3234 45.9558C42.877 45.5094 42.1539 45.5094 41.7073 45.9558C41.2609 46.4015 41.2609 47.1253 41.7073 47.5719L44.4021 50.2667C44.8486 50.7131 45.5716 50.7131 46.0182 50.2667C46.4648 49.8202 46.4646 49.0964 46.0182 48.6506Z" fill="#9BD0FF"/>
<path d="M32.7039 10.6667C32.5759 10.6667 32.4502 10.6743 32.323 10.6767V16.381C32.9538 16.381 33.4658 16.8923 33.4658 17.5238V21.3348C33.4658 21.9656 32.9538 22.4777 32.323 22.4777V32.0274C32.4495 32.0159 32.5745 32 32.7039 32C35.0178 32 36.8944 33.8767 36.8944 36.1905C36.8944 36.3192 36.8868 36.4457 36.8753 36.5714H44.8944C44.8959 35.9414 45.4065 35.4301 46.0365 35.4301L49.846 35.4286C50.4777 35.4286 50.9896 35.9399 50.9896 36.5714H58.2178C58.22 36.4442 58.2277 36.3185 58.2277 36.1905C58.2277 22.1165 46.7779 10.6667 32.7039 10.6667ZM46.0175 24.493L43.3234 27.1871C42.877 27.6335 42.1539 27.6335 41.7073 27.1871C41.2609 26.7406 41.2609 26.0168 41.7073 25.571L44.4014 22.877C44.8478 22.4305 45.5709 22.4305 46.0175 22.877C46.4639 23.3234 46.4639 24.0472 46.0175 24.493Z" fill="#306FD5"/>
<path d="M55.7447 20.6141L57.4431 18.915C58.6279 17.7295 58.6279 15.7897 57.4423 14.6042L54.2834 11.4452C53.0978 10.2597 51.1588 10.2604 49.9748 11.446L48.2758 13.1458C44.227 10.4052 39.4172 8.70476 34.2277 8.42426V6.09524H38.4182C40.0944 6.09524 41.4658 4.72381 41.4658 3.04762C41.4658 1.37143 40.0944 0 38.4182 0H26.2277C24.5516 0 23.1801 1.37143 23.1801 3.04762C23.1801 4.72381 24.5516 6.09524 26.2277 6.09524H30.4182V8.48229C16.1286 9.64568 4.89441 21.6015 4.89441 36.1905C4.89441 51.5497 17.344 64 32.7039 64C48.0632 64 60.5135 51.5497 60.5135 36.1905C60.5135 30.419 58.7542 25.0583 55.7447 20.6141ZM32.7039 61.7143C18.63 61.7143 7.18012 50.2644 7.18012 36.1905C7.18012 22.1165 18.63 10.6667 32.7039 10.6667C46.7779 10.6667 58.2277 22.1165 58.2277 36.1905C58.2277 50.2644 46.7779 61.7143 32.7039 61.7143Z" fill="#9BD0FF"/>
<path d="M32.7039 40.381C35.0182 40.381 36.8944 38.5048 36.8944 36.1905C36.8944 33.8761 35.0182 32 32.7039 32C30.3896 32 28.5134 33.8761 28.5134 36.1905C28.5134 38.5048 30.3896 40.381 32.7039 40.381Z" fill="#0C1D3E"/>
<path d="M46.0372 37.7158L49.8468 37.7143C50.4785 37.7143 50.9896 37.2022 50.9896 36.5714C50.9896 35.9399 50.4776 35.4286 49.846 35.4286L46.0365 35.4301C45.4057 35.4301 44.8944 35.9421 44.8944 36.5729C44.8944 37.2039 45.4064 37.7158 46.0372 37.7158Z" fill="#0C1D3E"/>
<path d="M33.4658 21.3348V17.5238C33.4658 16.8923 32.9537 16.381 32.3229 16.381C31.6921 16.381 31.1801 16.8923 31.1801 17.5238V21.3348C31.1801 21.9657 31.6921 22.4777 32.3229 22.4777C32.9537 22.4777 33.4658 21.9658 33.4658 21.3348Z" fill="#0C1D3E"/>
<path d="M44.4014 22.8769L41.7073 25.571C41.2609 26.0167 41.2609 26.7405 41.7073 27.1871C42.1537 27.6335 42.8768 27.6335 43.3232 27.1871L46.0173 24.493C46.4637 24.0466 46.4637 23.3228 46.0173 22.8769C45.571 22.4305 44.8472 22.4305 44.4014 22.8769Z" fill="#0C1D3E"/>
</g>
<defs>
<clipPath id="clip0_486_67">
<rect width="64" height="64" fill="white" transform="translate(0.703918)"/>
</clipPath>
</defs>
</svg>
