<?xml version="1.0" standalone="no"?>
<!DOCTYPE svg PUBLIC "-//W3C//DTD SVG 1.1//EN" "http://www.w3.org/Graphics/SVG/1.1/DTD/svg11.dtd" >
<svg xmlns="http://www.w3.org/2000/svg" xmlns:xlink="http://www.w3.org/1999/xlink" version="1.1">
<metadata></metadata>
<defs>
<font id="avenirnext_forintuitbold" horiz-adv-x="1323" >
<font-face units-per-em="2048" ascent="1638" descent="-410" />
<missing-glyph horiz-adv-x="512" />
<glyph unicode="&#xfb01;" horiz-adv-x="1361" d="M0 768v252h186v98q0 79 12.5 145.5t44 127.5t80.5 103.5t126 67.5t176 25q97 0 161 -20l-22 -267q-47 15 -92 15q-150 0 -150 -193v-102h228v-252h-228v-768h-336v768h-186zM866 1346q0 75 56 129.5t137 54.5q78 0 135 -54t57 -130q0 -77 -56.5 -131t-135.5 -54 q-81 0 -137 54.5t-56 130.5zM889 0v1020h338v-1020h-338z" />
<glyph unicode="&#xfb02;" horiz-adv-x="1363" d="M0 768v252h186v98q0 79 12.5 145.5t44 127.5t80.5 103.5t126 67.5t176 25q97 0 161 -20l-22 -267q-47 15 -92 15q-150 0 -150 -193v-102h228v-252h-228v-768h-336v768h-186zM889 0v1548h340v-1548h-340z" />
<glyph horiz-adv-x="1024" />
<glyph horiz-adv-x="1024" />
<glyph horiz-adv-x="682" />
<glyph unicode="&#xd;" horiz-adv-x="0" />
<glyph unicode=" "  horiz-adv-x="512" />
<glyph unicode="&#x09;" horiz-adv-x="512" />
<glyph unicode="&#xa0;" horiz-adv-x="512" />
<glyph unicode="!" horiz-adv-x="731" d="M166 172q0 80 58 137.5t141 57.5t141.5 -56.5t58.5 -136.5q0 -82 -58.5 -138t-141.5 -56q-81 0 -140 55.5t-59 136.5zM193 485v965h344v-965h-344z" />
<glyph unicode="&#x22;" horiz-adv-x="1019" d="M176 895v555h268v-555h-268zM575 895v555h267v-555h-267z" />
<glyph unicode="#" horiz-adv-x="1234" d="M94 410v213h203l31 204h-174v213h200l60 410h227l-59 -410h159l60 410h225l-57 -410h172v-213h-203l-29 -204h174v-213h-200l-62 -410h-225l59 410h-161l-60 -410h-225l59 410h-174zM524 623h160l29 204h-162z" />
<glyph unicode="$" d="M72 168q145 150 215 225q55 -59 139 -99t152 -42v358q-80 21 -138.5 42.5t-120 56.5t-100 78t-63.5 107t-25 144q0 96 41 178t107.5 134.5t146.5 83t162 34.5v142h149v-140q122 -3 245 -42.5t214 -112.5q-102 -117 -199 -223q-50 50 -121.5 79t-138.5 31v-328 q55 -16 93 -29t90.5 -35.5t89 -45.5t75.5 -57.5t62.5 -73t39 -91.5t15.5 -114q0 -87 -26 -160.5t-71 -124.5t-106 -87.5t-129 -55t-141 -20.5v-150h-151v150q-138 5 -273.5 53t-232.5 135zM444 1061q0 -113 144 -152v297q-61 -7 -102.5 -44t-41.5 -101zM729 250 q69 3 109.5 46t40.5 114q0 66 -39 103t-111 60v-323z" />
<glyph unicode="%" horiz-adv-x="1865" d="M59 1087q0 162 114 275t276 113t275.5 -113t113.5 -275q0 -160 -114 -273.5t-275 -113.5t-275.5 113.5t-114.5 273.5zM289 1087q0 -66 47 -111.5t113 -45.5t112.5 45.5t46.5 111.5t-46.5 113t-112.5 47t-113 -47t-47 -113zM424 20l846 1496l190 -93l-854 -1493zM1042 362 q0 161 114.5 274.5t275.5 113.5t275 -113.5t114 -274.5t-114 -274t-275 -113q-162 0 -276 113t-114 274zM1272 362q0 -66 47 -111.5t113 -45.5q65 0 112 46t47 111q0 66 -47 113t-112 47q-66 0 -113 -47t-47 -113z" />
<glyph unicode="&#x26;" horiz-adv-x="1599" d="M92 403q0 143 84.5 243t218.5 159q-149 146 -149 315q0 94 40 167.5t106 116t144 64t162 21.5q68 0 131 -13.5t120 -43t99.5 -72t67.5 -104.5t25 -136q0 -234 -291 -379l182 -186l146 223h372l-313 -420l360 -358h-423l-138 141q-160 -170 -424 -170q-81 0 -155.5 16.5 t-141.5 51t-116 84.5t-78 122t-29 158zM428 418q0 -82 60 -132t137 -50q133 0 213 110l-256 266q-71 -29 -112.5 -74t-41.5 -120zM563 1110q0 -99 109 -188q75 30 121.5 78t46.5 110q0 57 -38 95t-100 38q-60 0 -99.5 -38t-39.5 -95z" />
<glyph unicode="'" horiz-adv-x="620" d="M176 895v555h266v-555h-266z" />
<glyph unicode="(" horiz-adv-x="700" d="M59 590q0 250 78 490t223 440l230 -113q-130 -178 -198 -386.5t-68 -430.5t68 -430.5t198 -386.5l-230 -113q-145 200 -223 440t-78 490z" />
<glyph unicode=")" horiz-adv-x="700" d="M111 -227q130 178 198 386.5t68 430.5t-68 430.5t-198 386.5l229 113q145 -200 223 -440t78 -490t-78 -490t-223 -440z" />
<glyph unicode="*" horiz-adv-x="1001" d="M57 1069l72 205l260 -90v266h225v-266l260 82l70 -205l-262 -82l166 -219l-184 -129l-166 223l-162 -215l-180 129l166 213z" />
<glyph unicode="+" horiz-adv-x="1363" d="M115 492v258h434v428h266v-428h436v-258h-434v-429h-266v429h-436z" />
<glyph unicode="," horiz-adv-x="614" d="M41 -254l154 582h321l-199 -582h-276z" />
<glyph unicode="-" horiz-adv-x="667" d="M74 403v267h520v-267h-520z" />
<glyph unicode="." horiz-adv-x="614" d="M100 178q0 83 61.5 143t147.5 60q84 0 144.5 -58.5t60.5 -142.5t-60.5 -142t-144.5 -58q-86 0 -147.5 57t-61.5 141z" />
<glyph unicode="/" horiz-adv-x="849" d="M-14 -31l632 1592l232 -80l-633 -1587z" />
<glyph unicode="0" d="M94 729q0 126 19.5 236.5t63 208t108.5 166.5t162 109t217 40t216 -40t160.5 -109t107.5 -166.5t62 -208t19 -236.5q0 -127 -19 -238.5t-62 -209.5t-107.5 -168.5t-160.5 -111t-216 -40.5t-217 40.5t-162 111t-108.5 168.5t-63 209.5t-19.5 238.5zM446 729q0 -62 5 -121 t19.5 -125t38 -114.5t63.5 -80.5t92 -32q64 0 108.5 46t66 122.5t30 150t8.5 154.5q0 79 -8.5 152t-30 149t-66 122t-108.5 46q-52 0 -92 -32t-63.5 -80t-38 -113.5t-19.5 -124t-5 -119.5z" />
<glyph unicode="1" d="M131 1100l477 350h316v-1450h-344v1065l-271 -209z" />
<glyph unicode="2" d="M109 1022q16 143 94.5 250t197.5 162t261 55q81 0 156.5 -17t142.5 -53t117 -87.5t79 -125.5t29 -162q0 -60 -14.5 -115t-35.5 -96.5t-58 -86.5t-67.5 -75t-78.5 -73l-336 -299h592v-299h-1049v287l566 512q118 111 118 223q0 77 -49.5 125.5t-130.5 48.5 q-85 0 -139.5 -60t-65.5 -159z" />
<glyph unicode="3" d="M66 346l319 84q22 -77 87 -128.5t159 -51.5q85 0 148 45.5t63 138.5q0 53 -25.5 91.5t-69 59.5t-93.5 30.5t-107 9.5h-92v252h100q254 0 254 172q0 74 -53.5 116.5t-128.5 42.5q-74 0 -128 -44t-71 -117l-319 73q51 176 200.5 272.5t339.5 96.5q98 0 188 -25.5 t162.5 -74.5t116 -129t43.5 -181q0 -117 -68 -202t-176 -113v-6q124 -29 201.5 -122t77.5 -214q0 -92 -31.5 -169.5t-84.5 -130.5t-123.5 -90t-148.5 -54t-159 -17q-101 0 -191.5 22.5t-168 68t-135.5 120.5t-86 174z" />
<glyph unicode="4" d="M51 283v288l590 879h412v-889h200v-278h-198v-283h-322v283h-682zM385 561h350v537h-6z" />
<glyph unicode="5" d="M82 330l313 96q24 -77 87.5 -125.5t146.5 -48.5q93 0 155 55.5t62 155.5q0 62 -26 107t-70.5 68.5t-94 34.5t-106.5 11q-77 0 -177.5 -17.5t-176.5 -45.5l34 829h889v-295h-583l-13 -229q60 14 146 14q148 0 265 -50.5t188 -156.5t71 -254q0 -127 -47 -228.5t-126 -163.5 t-178 -94t-208 -32q-200 0 -350 99.5t-201 269.5z" />
<glyph unicode="6" d="M88 479q0 120 41 225t121 224l350 522h416l-357 -496l-6 -10q46 17 103 17q127 0 235 -58.5t174 -168t66 -247.5q0 -121 -45.5 -221t-123.5 -166t-181.5 -102.5t-221.5 -36.5q-158 0 -287.5 62.5t-206.5 182t-77 273.5zM432 477q0 -96 63.5 -162.5t163.5 -66.5 q101 0 164.5 64t63.5 167q0 99 -62.5 163.5t-162.5 64.5q-101 0 -165.5 -64.5t-64.5 -165.5z" />
<glyph unicode="7" d="M129 1155v295h1053v-274l-555 -1176h-400l588 1155h-686z" />
<glyph unicode="8" d="M117 412q0 126 74 218t186 128v4q-99 37 -160 117.5t-61 195.5q0 129 71.5 225t184.5 142.5t250 46.5q136 0 249 -45t184.5 -139.5t71.5 -223.5q0 -117 -60.5 -200.5t-160.5 -116.5v-6q112 -32 186 -126t74 -218q0 -111 -44.5 -199t-120.5 -142.5t-172.5 -83 t-206.5 -28.5t-206.5 28t-173 82.5t-121 142t-44.5 198.5zM459 426q0 -87 56.5 -140t146.5 -53t145 53t55 140q0 84 -56.5 140.5t-143.5 56.5q-89 0 -146 -56t-57 -141zM489 1057q0 -71 48 -121.5t125 -50.5q74 0 124 51t50 121t-51 118t-123 48q-76 0 -124.5 -47.5 t-48.5 -118.5z" />
<glyph unicode="9" d="M90 963q0 121 45.5 221t123.5 166t181.5 102.5t221.5 36.5q159 0 288 -62.5t206 -181.5t77 -274q0 -120 -41 -225t-121 -224l-350 -522h-416l361 500l4 6q-49 -17 -103 -17q-127 0 -235.5 58.5t-175 168.5t-66.5 247zM434 973q0 -99 62.5 -163.5t162.5 -64.5 q101 0 165.5 64.5t64.5 165.5q0 97 -62.5 164t-162.5 67q-102 0 -166 -65t-64 -168z" />
<glyph unicode=":" horiz-adv-x="679" d="M139 180q0 82 60 139.5t143 57.5q80 0 139.5 -57t59.5 -138t-59 -137.5t-140 -56.5q-83 0 -143 55.5t-60 136.5zM139 836q0 81 59.5 138.5t143.5 57.5q80 0 139.5 -56.5t59.5 -135.5q0 -81 -59.5 -139t-139.5 -58q-83 0 -143 56t-60 137z" />
<glyph unicode=";" horiz-adv-x="679" d="M61 -254l154 582h328l-199 -582h-283zM141 838q0 82 59 139t142 57q81 0 140 -56.5t59 -137.5t-58.5 -138t-140.5 -57q-81 0 -141 56t-60 137z" />
<glyph unicode="&#x3c;" horiz-adv-x="1363" d="M162 514v211l1040 438v-278l-627 -269l627 -260v-280z" />
<glyph unicode="=" horiz-adv-x="1363" d="M139 307v252h1086v-252h-1086zM139 686v252h1086v-252h-1086z" />
<glyph unicode="&#x3e;" horiz-adv-x="1363" d="M162 76v280l626 260l-626 269v278l1040 -438v-211z" />
<glyph unicode="?" horiz-adv-x="1118" d="M82 1044q11 109 56 194.5t114.5 140t157 82.5t186.5 28q94 0 178.5 -24.5t154 -73t110 -129t40.5 -183.5q0 -66 -14.5 -117.5t-48.5 -96.5t-69.5 -78t-96.5 -80q-67 -53 -89 -90t-22 -101v-53h-319v78q0 69 20 123t51.5 93t90.5 91l67 63q41 36 62.5 69.5t21.5 76.5 q0 65 -40 104t-109 39q-80 0 -126.5 -55.5t-49.5 -134.5zM381 172q0 80 59 137.5t142 57.5q82 0 140 -56.5t58 -136.5q0 -82 -57.5 -138t-140.5 -56t-142 55.5t-59 136.5z" />
<glyph unicode="@" horiz-adv-x="1638" d="M59 723q0 160 62.5 302.5t169 243.5t251.5 159.5t306 58.5q117 0 224.5 -26.5t201 -81.5t163 -133t109 -187t39.5 -238q0 -229 -118 -361t-302 -132q-81 0 -133.5 36t-60.5 95h-8q-32 -54 -95.5 -92.5t-148.5 -38.5q-136 0 -215.5 95.5t-79.5 250.5q0 117 47.5 221.5 t139 172t206.5 67.5q75 0 128 -32t67 -79h2l14 70h221l-63 -322q-27 -127 -27 -170q0 -74 60 -74q66 0 111.5 74.5t45.5 210.5q0 233 -145 360t-385 127q-248 0 -404.5 -163.5t-156.5 -413.5q0 -258 163 -412.5t424 -154.5q279 0 471 176l130 -144q-231 -225 -623 -225 q-172 0 -319.5 56.5t-251 156.5t-162 241.5t-58.5 305.5zM668 674q0 -60 26 -102t86 -42q57 0 97.5 41.5t57.5 95t17 109.5q0 160 -114 160q-73 0 -121.5 -82.5t-48.5 -179.5z" />
<glyph unicode="A" horiz-adv-x="1492" d="M-29 0l609 1450h340l602 -1450h-389l-113 285h-561l-107 -285h-381zM559 565h365l-181 498z" />
<glyph unicode="B" horiz-adv-x="1361" d="M150 0v1450h577q72 0 138 -10.5t132.5 -37t115 -67.5t78.5 -107t30 -151q0 -116 -64 -196t-174 -117v-4q130 -23 213.5 -112t83.5 -226q0 -91 -31.5 -164.5t-83.5 -120.5t-124.5 -78.5t-150 -45t-163.5 -13.5h-577zM487 283h197q46 0 86 7.5t78 25t60 53.5t22 86 q0 86 -64 122.5t-184 36.5h-195v-331zM487 872h189q99 0 153 41t54 117q0 141 -224 141h-172v-299z" />
<glyph unicode="C" horiz-adv-x="1425" d="M82 727q0 227 104.5 402t282.5 267.5t399 92.5q158 0 306.5 -56t236.5 -157l-237 -238q-48 65 -127 99t-166 34q-182 0 -300 -125.5t-118 -318.5q0 -198 114.5 -321t296.5 -123q100 0 180.5 40t127.5 107l243 -229q-98 -114 -241.5 -177t-321.5 -63q-166 0 -310 56 t-247.5 155.5t-163 243t-59.5 311.5z" />
<glyph unicode="D" horiz-adv-x="1585" d="M150 0v1450h524q130 0 245 -21.5t224 -74.5t187.5 -133.5t125.5 -206.5t47 -285q0 -148 -46.5 -271t-124.5 -206.5t-183.5 -141t-220.5 -84t-238 -26.5h-540zM492 303h165q78 0 146.5 13t131 44t107 78.5t71 122t26.5 168.5q0 95 -26.5 169t-70 121t-105.5 77 t-128.5 42.5t-142.5 12.5h-174v-848z" />
<glyph unicode="E" horiz-adv-x="1243" d="M150 0v1450h974v-297h-637v-272h603v-281h-603v-301h674v-299h-1011z" />
<glyph unicode="F" horiz-adv-x="1179" d="M150 0v1450h954v-299h-608v-299h561v-289h-561v-563h-346z" />
<glyph unicode="G" horiz-adv-x="1574" d="M82 727q0 227 104.5 402t282.5 267.5t399 92.5q169 0 318 -52t241 -141l-221 -252q-53 61 -138 98.5t-187 37.5q-184 0 -305 -129t-121 -324q0 -205 116.5 -331t325.5 -126q131 0 219 39v264h-276v283h598v-768q-238 -125 -559 -125q-230 0 -411 95t-283.5 269.5 t-102.5 399.5z" />
<glyph unicode="H" horiz-adv-x="1564" d="M150 0v1450h350v-549h565v549h350v-1450h-350v606h-565v-606h-350z" />
<glyph unicode="I" horiz-adv-x="651" d="M150 0v1450h352v-1450h-352z" />
<glyph unicode="J" horiz-adv-x="1083" d="M-6 301l309 105q14 -58 52.5 -92.5t93.5 -34.5q81 0 111 55t30 160v956h352v-954q0 -76 -11 -144.5t-43.5 -142t-83.5 -126.5t-138 -87.5t-201 -34.5q-179 0 -304.5 93.5t-166.5 246.5z" />
<glyph unicode="K" horiz-adv-x="1456" d="M150 0v1450h344v-590h6l518 590h438l-625 -668l662 -782h-457l-538 668h-4v-668h-344z" />
<glyph unicode="L" horiz-adv-x="1077" d="M150 0v1450h352v-1145h561v-305h-913z" />
<glyph unicode="M" horiz-adv-x="1955" d="M150 0v1450h497l330 -930h8l315 930h506v-1450h-342l9 1026h-7l-376 -1026h-246l-367 1026h-6l8 -1026h-329z" />
<glyph unicode="N" horiz-adv-x="1617" d="M150 0v1450h399l581 -946h7l-9 946h340v-1450h-397l-584 948h-6l8 -948h-339z" />
<glyph unicode="O" horiz-adv-x="1742" d="M82 731q0 228 102.5 401.5t281 265t404.5 91.5q227 0 406 -91.5t282 -265t103 -401.5q0 -226 -102.5 -402t-282.5 -272t-406 -96q-135 0 -256 35.5t-217.5 103.5t-167.5 161.5t-109 213.5t-38 256zM457 731q0 -197 115.5 -323.5t297.5 -126.5q183 0 299.5 126.5 t116.5 323.5q0 192 -116.5 317.5t-299.5 125.5t-298 -125.5t-115 -317.5z" />
<glyph unicode="P" horiz-adv-x="1310" d="M150 0v1450h532q98 0 181 -14.5t155.5 -47.5t122.5 -83.5t79 -127t29 -173.5q0 -122 -46.5 -212.5t-128.5 -142.5t-181.5 -77t-218.5 -25h-174v-547h-350zM500 825h147q71 0 124.5 14.5t90.5 55.5t37 106q0 50 -20 84t-57 51t-77 24t-92 7h-153v-342z" />
<glyph unicode="Q" horiz-adv-x="1755" d="M74 743q0 216 102.5 387t281.5 265t402 94t401 -93t278.5 -262t100.5 -384q0 -154 -63.5 -278.5t-151.5 -192.5v-7l306 7v-279h-883q-173 0 -315.5 50t-244.5 143t-158 234t-56 316zM451 739q0 -195 113.5 -317.5t293.5 -122.5q179 0 295.5 123t116.5 317 q0 190 -114.5 311t-295.5 121q-176 0 -292.5 -122t-116.5 -310z" />
<glyph unicode="R" horiz-adv-x="1357" d="M150 0v1450h552q88 0 165.5 -13.5t150 -45.5t124.5 -81t83.5 -125.5t31.5 -172.5q0 -144 -80 -246t-221 -145l379 -621h-409l-314 575h-118v-575h-344zM492 829h165q48 0 88.5 7.5t80 25.5t62.5 55t23 89q0 161 -233 161h-186v-338z" />
<glyph unicode="S" horiz-adv-x="1210" d="M31 172l229 234q53 -67 140.5 -110.5t172.5 -43.5q88 0 144.5 38t56.5 120q0 76 -80 122q-50 29 -213 81l-1 1h-1h-1l-1 1h-1h-1l-1 1h-1q-51 16 -92 33.5t-85.5 42t-77.5 56.5t-60.5 72.5t-41.5 94t-14 117.5q0 93 32.5 170.5t87.5 129t128 87.5t152 52t162 16 q127 0 254.5 -46.5t220.5 -131.5l-224 -236q-43 56 -116 90.5t-142 34.5q-51 0 -93.5 -11.5t-75.5 -45.5t-33 -88q0 -28 11 -50.5t27 -38t48.5 -31t60 -25.5t76.5 -25q55 -18 88 -29.5t86.5 -34t86.5 -44t73 -56t62.5 -72t38 -89.5t15.5 -112q0 -121 -46 -215.5t-124.5 -152 t-176 -86.5t-208.5 -29q-157 0 -302.5 55t-239.5 154z" />
<glyph unicode="T" horiz-adv-x="1189" d="M10 1151v299h1170v-299h-410v-1151h-350v1151h-410z" />
<glyph unicode="U" horiz-adv-x="1511" d="M135 547v903h348v-875q0 -61 15.5 -113t47 -94.5t85.5 -67t125 -24.5q72 0 126 24.5t85 67t46 94.5t15 113v875h350v-903q0 -262 -170.5 -424t-453.5 -162t-451 161.5t-168 424.5z" />
<glyph unicode="V" horiz-adv-x="1396" d="M-31 1450h393l336 -1028h9l333 1028h387l-559 -1450h-350z" />
<glyph unicode="W" horiz-adv-x="2099" d="M0 1450h377l229 -965h6l258 965h365l260 -965h6l234 965h364l-413 -1450h-347l-286 981h-6l-287 -981h-348z" />
<glyph unicode="X" horiz-adv-x="1439" d="M-16 0l508 766l-467 684h421l271 -451l266 451h408l-459 -684l524 -766h-432l-317 512l-306 -512h-417z" />
<glyph unicode="Y" horiz-adv-x="1370" d="M-41 1450h424l309 -537l309 537h410l-557 -836v-614h-350v614z" />
<glyph unicode="Z" horiz-adv-x="1300" d="M80 0v303l690 850h-674v297h1112v-281l-706 -866h721v-303h-1143z" />
<glyph unicode="[" horiz-adv-x="700" d="M109 -319v1818h442v-209h-182v-1401h182v-208h-442z" />
<glyph unicode="\" horiz-adv-x="849" d="M2 1481l231 80l631 -1592l-231 -75z" />
<glyph unicode="]" horiz-adv-x="700" d="M150 -111h182v1401h-182v209h442v-1818h-442v208z" />
<glyph unicode="^" horiz-adv-x="1413" d="M150 702l436 748h241l435 -748h-304l-253 437l-252 -437h-303z" />
<glyph unicode="_" horiz-adv-x="1024" d="M0 -154h1024v-182h-1024v182z" />
<glyph unicode="`" horiz-adv-x="614" d="M-80 1466h340l213 -295h-254z" />
<glyph unicode="a" horiz-adv-x="1159" d="M68 295q0 344 655 344v16q0 72 -51 110t-133 38q-69 0 -136 -29.5t-116 -75.5l-170 183q88 83 207.5 127.5t246.5 44.5q253 0 361 -128t108 -411v-514h-307v109h-6q-38 -62 -117.5 -98t-171.5 -36q-65 0 -127 17t-118 52.5t-90.5 100t-34.5 150.5zM377 305q0 -54 43 -79 t102 -25q100 0 155.5 56.5t55.5 152.5v34h-43q-63 0 -112 -5t-98 -18.5t-76 -43t-27 -72.5z" />
<glyph unicode="b" horiz-adv-x="1349" d="M135 0v1548h336v-637h4q49 59 128 98.5t183 39.5q108 0 200 -43.5t153 -117t95 -170.5t34 -204t-33.5 -205t-94 -173.5t-153.5 -120t-205 -44.5q-103 0 -193.5 43.5t-139.5 118.5h-5v-133h-309zM457 512q0 -105 68 -183.5t177 -78.5q77 0 133 39t82.5 97.5t26.5 127.5 q0 106 -64 183t-178 77q-109 0 -177 -79.5t-68 -182.5z" />
<glyph unicode="c" horiz-adv-x="1030" d="M80 510q0 162 76.5 287t205 190.5t287.5 65.5q109 0 214 -38.5t165 -99.5l-194 -225q-28 37 -78 59.5t-101 22.5q-103 0 -169 -76.5t-66 -185.5t66 -184.5t173 -75.5q53 0 103 20t80 56l186 -228q-63 -61 -163.5 -96t-213.5 -35q-162 0 -290.5 64.5t-204.5 189t-76 289.5 z" />
<glyph unicode="d" horiz-adv-x="1347" d="M80 514q0 107 34 204t94.5 170.5t152.5 117t200 43.5q104 0 183 -39.5t128 -98.5h5v637h335v-1548h-309v133h-4q-49 -75 -140 -118.5t-194 -43.5q-148 0 -260.5 77t-168.5 199t-56 267zM403 514q0 -69 26.5 -127.5t82.5 -97.5t133 -39q109 0 177.5 78.5t68.5 183.5 q0 103 -68.5 182.5t-177.5 79.5q-114 0 -178 -77t-64 -183z" />
<glyph unicode="e" horiz-adv-x="1220" d="M80 506q0 163 73.5 289t198 192t279.5 66q229 0 370.5 -149t141.5 -406q0 -55 -2 -80h-740q7 -83 79 -138t165 -55q146 0 225 107l234 -148q-73 -105 -191 -161t-272 -56q-156 0 -281.5 62t-202.5 186t-77 291zM401 627h433q0 84 -52.5 139t-148.5 55q-95 0 -160.5 -57 t-71.5 -137z" />
<glyph unicode="f" horiz-adv-x="745" d="M0 768v252h186v98q0 79 12.5 145.5t44 127.5t80.5 103.5t126 67.5t176 25q97 0 161 -20l-22 -267q-47 15 -92 15q-150 0 -150 -193v-102h228v-252h-228v-768h-336v768h-186z" />
<glyph unicode="g" horiz-adv-x="1347" d="M80 514q0 144 56 264t168.5 195.5t260.5 75.5q100 0 187 -40.5t139 -119.5h4v131h317v-924q0 -291 -160 -439.5t-440 -148.5q-137 0 -280.5 42.5t-243.5 117.5l168 240q72 -63 160.5 -96t177.5 -33q143 0 216 76t73 208v62h-6q-48 -63 -129 -99t-181 -36q-113 0 -206 42 t-154 114t-94 166.5t-33 201.5zM406 516q0 -107 65 -183.5t174 -76.5q112 0 180 76t68 184t-68.5 183t-179.5 75q-110 0 -174.5 -74t-64.5 -184z" />
<glyph unicode="h" horiz-adv-x="1263" d="M135 0v1548h336v-657h4q36 66 114.5 112t178.5 46q99 0 174 -36t117 -97t62 -132.5t20 -152.5v-631h-338v553q0 215 -150 215q-85 0 -133.5 -61.5t-48.5 -155.5v-551h-336z" />
<glyph unicode="i" horiz-adv-x="606" d="M111 1346q0 75 55.5 129.5t136.5 54.5q80 0 136.5 -54t56.5 -130q0 -78 -56.5 -131.5t-136.5 -53.5q-81 0 -136.5 54.5t-55.5 130.5zM135 0v1020h336v-1020h-336z" />
<glyph unicode="j" horiz-adv-x="612" d="M-76 -475l23 280q31 -10 71 -10q69 0 96 46t27 132v1047h336v-1047q0 -81 -10.5 -146t-38 -126t-72.5 -102.5t-117.5 -66t-168.5 -24.5q-83 0 -146 17zM117 1346q0 75 55.5 129.5t136.5 54.5q80 0 136.5 -54t56.5 -130q0 -78 -56.5 -131.5t-136.5 -53.5 q-81 0 -136.5 54.5t-55.5 130.5z" />
<glyph unicode="k" horiz-adv-x="1218" d="M133 0v1548h338v-942h6l326 414h407l-393 -461l410 -559h-416l-334 489h-6v-489h-338z" />
<glyph unicode="l" horiz-adv-x="610" d="M135 0v1548h340v-1548h-340z" />
<glyph unicode="m" horiz-adv-x="1892" d="M131 0v1020h326v-141h4q39 72 118 121t187 49q217 0 307 -175q112 175 326 175q99 0 173.5 -37.5t115.5 -100t61 -133t20 -147.5v-631h-335v557q0 100 -32 157.5t-114 57.5t-126 -64t-44 -157v-551h-336v582q0 90 -36 140t-109 50q-77 0 -122.5 -62t-45.5 -157v-553h-338 z" />
<glyph unicode="n" horiz-adv-x="1261" d="M131 0v1020h326v-141h4q37 71 120.5 120.5t184.5 49.5q99 0 173.5 -36t116.5 -97t62.5 -132.5t20.5 -152.5v-631h-338v557q0 215 -152 215q-85 0 -132.5 -63t-47.5 -156v-553h-338z" />
<glyph unicode="o" horiz-adv-x="1294" d="M80 514q0 122 45 224.5t122.5 170.5t180 106t217.5 38q116 0 219 -38t180.5 -106t122.5 -170.5t45 -224.5q0 -162 -77.5 -288.5t-206 -192.5t-283.5 -66q-154 0 -282 66t-205.5 192.5t-77.5 288.5zM406 514q0 -106 64.5 -185t176.5 -79t177 79t65 185q0 105 -65.5 182.5 t-178.5 77.5q-112 0 -175.5 -77t-63.5 -183z" />
<glyph unicode="p" horiz-adv-x="1345" d="M131 -492v1512h320v-125h6q50 67 134.5 110.5t190.5 43.5q108 0 200 -43.5t153.5 -117t96 -170.5t34.5 -204t-33.5 -205t-94 -173.5t-153.5 -120t-205 -44.5q-94 0 -178 38t-131 104h-4v-605h-336zM455 512q0 -105 68 -183.5t177 -78.5q113 0 176.5 78t63.5 186 q0 106 -63.5 183t-176.5 77q-109 0 -177 -79.5t-68 -182.5z" />
<glyph unicode="q" horiz-adv-x="1345" d="M80 514q0 107 34 204t94.5 170.5t152.5 117t200 43.5q107 0 192.5 -43.5t135.5 -110.5h6v125h317v-1512h-333v605h-5q-49 -66 -132 -104t-177 -38q-112 0 -205.5 44.5t-153.5 120t-93 173t-33 205.5zM403 514q0 -69 26.5 -127.5t82.5 -97.5t133 -39q109 0 177.5 78.5 t68.5 183.5q0 103 -68.5 182.5t-177.5 79.5q-114 0 -178 -77t-64 -183z" />
<glyph unicode="r" horiz-adv-x="811" d="M131 0v1020h324v-148h4q40 80 112.5 128.5t163.5 48.5q48 0 72 -9l-14 -295q-43 11 -86 11q-64 0 -113 -24t-75 -61t-39 -74.5t-13 -72.5v-524h-336z" />
<glyph unicode="s" horiz-adv-x="966" d="M23 125l188 199q46 -51 112.5 -83t137.5 -32q48 0 84.5 21.5t36.5 66.5q0 44 -44 67t-159 50q-60 14 -107 34t-93 53.5t-71.5 87t-25.5 122.5q0 87 38.5 155.5t101 107.5t135 59t149.5 20q117 0 226.5 -37.5t182.5 -106.5l-184 -190q-96 92 -213 92q-53 0 -90 -20.5 t-37 -61.5q0 -40 39 -59t148 -43q325 -73 325 -312q0 -93 -38 -162.5t-102.5 -108.5t-138.5 -58t-157 -19q-127 0 -246.5 41.5t-197.5 116.5z" />
<glyph unicode="t" horiz-adv-x="761" d="M4 768v252h162v268h330v-268h239v-252h-239v-389q0 -73 28.5 -108t98.5 -35q58 0 98 16l4 -246q-87 -31 -195 -31q-194 0 -278 94.5t-84 268.5v430h-164z" />
<glyph unicode="u" horiz-adv-x="1257" d="M121 389v631h338v-553q0 -47 6.5 -83t22.5 -68t47 -49t75 -17q84 0 132.5 63.5t48.5 155.5v551h335v-1020h-323v141h-4q-37 -71 -120.5 -120.5t-186.5 -49.5q-99 0 -173 36t-116 97t-62 132.5t-20 152.5z" />
<glyph unicode="v" horiz-adv-x="1161" d="M-2 1020h371l215 -662h6l215 662h358l-401 -1020h-363z" />
<glyph unicode="w" horiz-adv-x="1783" d="M0 1020h362l177 -645h6l182 645h338l188 -645h4l179 645h348l-354 -1020h-338l-201 635h-4l-197 -635h-338z" />
<glyph unicode="x" horiz-adv-x="1216" d="M-6 0l407 535l-368 485h391l190 -272l193 272h379l-367 -485l404 -535h-396l-219 313l-225 -313h-389z" />
<glyph unicode="y" horiz-adv-x="1161" d="M-2 1020h373l227 -655h6l203 655h356l-456 -1174q-33 -84 -69.5 -143t-89 -105t-124.5 -68t-166 -22q-90 0 -184 23l37 283q63 -19 108 -19q73 0 109 32t63 105l33 84z" />
<glyph unicode="z" horiz-adv-x="1048" d="M70 0v262l479 500h-461v258h870v-252l-493 -508h514v-260h-909z" />
<glyph unicode="{" horiz-adv-x="700" d="M12 477v225q138 0 138 144v350q0 138 76 220.5t204 82.5h168v-215h-96q-94 0 -94 -123v-342q0 -56 -20 -101t-51.5 -70t-61.5 -39t-58 -17v-4q29 -3 58.5 -15.5t61 -37.5t51.5 -72.5t20 -110.5v-334q0 -122 94 -122h96v-215h-168q-128 0 -204 82.5t-76 220.5v342 q0 151 -138 151z" />
<glyph unicode="|" horiz-adv-x="493" d="M113 1536h268v-2048h-266z" />
<glyph unicode="}" horiz-adv-x="700" d="M102 -104h97q94 0 94 122v334q0 63 20 110.5t51 72.5t60.5 37.5t58.5 15.5v4q-28 3 -58 17t-61 39t-51 70t-20 101v342q0 123 -94 123h-97v215h168q128 0 204.5 -82.5t76.5 -220.5v-350q0 -144 137 -144v-225q-137 0 -137 -151v-342q0 -138 -76.5 -220.5t-204.5 -82.5 h-168v215z" />
<glyph unicode="~" horiz-adv-x="1363" d="M174 604q104 203 281 203q118 0 245 -76q142 -82 203 -82q51 0 91.5 38t86.5 108l133 -207v-4q-56 -95 -121.5 -150t-162.5 -55q-62 0 -113 18t-117 60q-66 41 -115.5 59.5t-103.5 18.5q-102 0 -172 -144z" />
<glyph unicode="&#xa1;" horiz-adv-x="731" d="M166 868q0 81 59 137t140 56q83 0 141.5 -56.5t58.5 -138.5q0 -80 -58.5 -136t-141.5 -56t-141 57t-58 137zM193 -410v965h344v-965h-344z" />
<glyph unicode="&#xa2;" d="M166 512q0 218 130 362t347 175v131h156v-131q98 -6 184 -38.5t141 -90.5l-170 -213q-64 67 -155 79v-553q94 9 162 80l165 -209q-58 -58 -144 -91.5t-183 -41.5v-133h-156v133q-216 25 -346.5 173.5t-130.5 367.5zM455 510q0 -99 50 -173.5t138 -98.5v544 q-90 -21 -139 -95t-49 -177z" />
<glyph unicode="&#xa3;" d="M147 0v289h195v327h-195v236h195v125q0 70 18 139t59.5 137t101.5 120t151.5 84t201.5 32q252 0 406 -141l-197 -226q-33 36 -83 57t-105 21q-49 0 -87.5 -15t-62 -39t-38.5 -57t-21 -65.5t-6 -67.5v-104h319v-236h-319v-327h530v-289h-1063z" />
<glyph unicode="&#xa4;" d="M59 156l177 174q-72 113 -72 266t65 260l-168 166l168 166l168 -166q132 76 267 76q142 0 266 -72l162 162l172 -166l-166 -164q69 -110 69 -262q0 -69 -20 -144.5t-53 -127.5l168 -166l-166 -172l-172 172q-107 -68 -260 -68q-63 0 -134 20t-127 52l-174 -176zM422 596 q0 -108 66.5 -182t175.5 -74q111 0 177 74t66 182t-66 181t-177 73q-109 0 -175.5 -73t-66.5 -181z" />
<glyph unicode="&#xa5;" d="M25 1450h378l271 -532l264 532h367l-367 -598h254v-211h-367v-133h367v-211h-367v-297h-323v297h-365v211h365v133h-365v211h260z" />
<glyph unicode="&#xa6;" horiz-adv-x="493" d="M113 -358v741h268v-741h-268zM113 641v741h268v-741h-268z" />
<glyph unicode="&#xa7;" horiz-adv-x="1243" d="M82 -55l250 178q43 -73 120.5 -111.5t153.5 -38.5q57 0 103.5 28t46.5 77q0 27 -11.5 48t-27 36t-55 33t-72 30t-100.5 36q-2 1 -3 1q-69 24 -116.5 44t-97 50t-79 64t-48.5 82.5t-19 107.5q0 97 49 168t127 115q-108 79 -108 231q0 91 43.5 163t114 114.5t151 64 t162.5 21.5q152 0 274.5 -54.5t192.5 -156.5l-238 -180q-36 56 -95.5 89.5t-119.5 33.5q-57 0 -101 -26t-44 -75q0 -52 54.5 -87.5t184.5 -80.5q69 -25 119 -48.5t101.5 -57t83.5 -71t52.5 -89.5t20.5 -113q0 -80 -42 -148.5t-112 -107.5q103 -71 103 -225 q0 -82 -30.5 -149.5t-80 -111.5t-115.5 -74.5t-134.5 -44t-139.5 -13.5q-153 0 -296 65t-222 183zM428 657q0 -30 12 -52.5t40.5 -41t48.5 -27.5t63 -26l192 -76q30 13 47 42.5t17 62.5q0 29 -12.5 53t-38 43t-48.5 31t-61 28l-176 72q-84 -34 -84 -109z" />
<glyph unicode="&#xa8;" horiz-adv-x="614" d="M-86 1348q0 67 50 116t120 49q71 0 121.5 -48t50.5 -117q0 -70 -50.5 -119t-121.5 -49q-70 0 -120 49.5t-50 118.5zM360 1348q0 67 49.5 116t120.5 49q69 0 119.5 -48t50.5 -117q0 -70 -50 -119t-120 -49q-72 0 -121 49t-49 119z" />
<glyph unicode="&#xa9;" horiz-adv-x="1638" d="M41 723q0 158 62 301.5t166.5 246.5t248.5 163.5t303 60.5q158 0 301.5 -60.5t247.5 -163.5t165.5 -246.5t61.5 -301.5t-61.5 -300.5t-165.5 -244.5t-247.5 -162.5t-301.5 -60.5q-159 0 -303 60.5t-248.5 162.5t-166.5 244.5t-62 300.5zM164 723q0 -133 51.5 -253.5 t139 -208t208.5 -139.5t254 -52q177 0 328.5 87.5t240.5 238t89 327.5q0 178 -88 329.5t-238.5 239.5t-327.5 88q-133 0 -255 -52t-210 -140t-140 -210t-52 -255zM373 721q0 141 66.5 249.5t176 164t242.5 55.5q102 0 193.5 -39t146.5 -107l-158 -143q-29 37 -79 58.5 t-105 21.5q-108 0 -170.5 -76.5t-62.5 -181.5q0 -106 65 -184t180 -78q53 0 102 19.5t79 54.5l147 -156q-58 -61 -147 -95t-191 -34q-135 0 -243.5 54t-175 162.5t-66.5 254.5z" />
<glyph unicode="&#xaa;" horiz-adv-x="786" d="M92 1049q0 51 24 89t60 58.5t90 33t101 16t106 3.5v8q0 35 -28 53.5t-74 18.5q-83 0 -140 -57q-18 18 -54.5 55.5t-55.5 56.5q50 46 121.5 71.5t146.5 25.5q285 0 285 -262v-336h-191v55h-2q-21 -33 -68 -51.5t-104 -18.5q-87 0 -152 46t-65 135zM291 1061q0 -27 23 -41 t53 -14q53 0 82.5 28.5t29.5 73.5v25h-24q-164 0 -164 -72z" />
<glyph unicode="&#xab;" horiz-adv-x="1112" d="M51 520l330 475l199 -129l-236 -346l238 -346l-201 -129zM514 520l330 475l198 -129l-235 -346l235 -346l-198 -129z" />
<glyph unicode="&#xac;" horiz-adv-x="1363" d="M104 672v252h1137v-627h-266v375h-871z" />
<glyph unicode="&#xad;" horiz-adv-x="667" d="M74 403v267h520v-267h-520z" />
<glyph unicode="&#xae;" horiz-adv-x="1228" d="M147 1008q0 193 137.5 329t331.5 136q192 0 328.5 -136t136.5 -329q0 -127 -62.5 -233t-169.5 -167t-233 -61q-127 0 -235 61t-171 167t-63 233zM221 1008q0 -162 115.5 -278t279.5 -116q162 0 277 116t115 278q0 163 -114.5 278t-277.5 115q-164 0 -279.5 -115 t-115.5 -278zM391 748v544h234q47 0 88.5 -8.5t78.5 -27.5t58.5 -55t21.5 -85q0 -112 -98 -151l125 -217h-205l-90 192h-33v-192h-180zM571 1067h54q25 0 41 13.5t16 33.5q0 17 -17 27t-40 10h-54v-84z" />
<glyph unicode="&#xaf;" horiz-adv-x="614" d="M-37 1231v176h688v-176h-688z" />
<glyph unicode="&#xb0;" horiz-adv-x="851" d="M82 1143q0 145 99.5 243.5t244.5 98.5t244.5 -98.5t99.5 -243.5t-99.5 -244.5t-244.5 -99.5t-244.5 99.5t-99.5 244.5zM246 1143q0 -75 52.5 -127.5t127.5 -52.5t127.5 52.5t52.5 127.5q0 74 -52.5 127t-127.5 53t-127.5 -53t-52.5 -127z" />
<glyph unicode="&#xb1;" horiz-adv-x="1363" d="M125 63v261h1137v-261h-1137zM125 678v260h436v270h266v-270h435v-260h-435v-270h-266v270h-436z" />
<glyph unicode="&#xb2;" horiz-adv-x="860" d="M92 1169q15 141 112.5 222.5t233.5 81.5q87 0 159 -28t120.5 -92t48.5 -155q0 -46 -12 -85.5t-37.5 -74.5t-47 -57.5t-59.5 -56.5l-178 -158h334v-203h-653v189l348 317q59 56 59 115q0 37 -25 60.5t-67 23.5q-46 0 -76 -34.5t-35 -90.5z" />
<glyph unicode="&#xb3;" horiz-adv-x="860" d="M80 797l215 57q15 -48 48 -78.5t83 -30.5q47 0 81 23.5t34 71.5q0 96 -160 96h-68v172h74q133 0 133 94q0 35 -26 56.5t-68 21.5q-37 0 -66 -27t-38 -71l-216 51q32 115 126 178.5t210 63.5q62 0 117.5 -15t100 -44t70.5 -78t26 -111q0 -67 -31.5 -117.5t-85.5 -77.5 q65 -23 101 -77.5t36 -127.5q0 -71 -29.5 -126.5t-78.5 -88t-107 -49t-121 -16.5q-130 0 -227 61.5t-133 188.5z" />
<glyph unicode="&#xb4;" horiz-adv-x="614" d="M141 1171l213 295h340l-299 -295h-254z" />
<glyph unicode="&#xb5;" horiz-adv-x="1363" d="M182 -463v1483h332v-508q0 -32 3 -62t13.5 -66.5t26.5 -63t46 -44.5t69 -18q97 0 141.5 63t44.5 164v535h332v-1020h-318v117h-2q-75 -131 -227 -131q-85 0 -129 41v-490h-332z" />
<glyph unicode="&#xb6;" horiz-adv-x="1265" d="M49 1061q0 389 500 389h588v-1714h-238v1509h-174v-1509h-238v950q-200 4 -319 106.5t-119 268.5z" />
<glyph unicode="&#xb7;" horiz-adv-x="614" d="M100 594q0 83 61.5 143t147.5 60q84 0 144.5 -58.5t60.5 -142.5t-60.5 -142.5t-144.5 -58.5q-86 0 -147.5 57.5t-61.5 141.5z" />
<glyph unicode="&#xb8;" horiz-adv-x="614" d="M35 -440l55 123q80 -39 172 -39q41 0 72 15t31 52q0 33 -29 46.5t-68 13.5q-41 0 -82 -13l-63 60l137 182h168l-96 -123q14 2 37 2q41 0 75 -7.5t66.5 -25t51 -52.5t18.5 -85q0 -56 -28 -97.5t-75 -63t-96 -31t-102 -9.5q-138 0 -244 52z" />
<glyph unicode="&#xb9;" horiz-adv-x="860" d="M94 1231l297 219h217v-893h-239v627l-152 -119z" />
<glyph unicode="&#xba;" horiz-adv-x="786" d="M76 1178q0 135 91 220t226 85q136 0 228 -84.5t92 -220.5q0 -137 -92 -223.5t-228 -86.5q-135 0 -226 86.5t-91 223.5zM272 1178q0 -55 32.5 -93t88.5 -38q58 0 91.5 38t33.5 93q0 53 -34.5 91t-90.5 38t-88.5 -37.5t-32.5 -91.5z" />
<glyph unicode="&#xbb;" horiz-adv-x="1112" d="M70 866l200 129l330 -477l-330 -473l-198 129l235 344zM532 174l236 344l-236 348l199 129l332 -477l-332 -473z" />
<glyph unicode="&#xbc;" horiz-adv-x="1925" d="M94 1231l297 219h217v-893h-239v627l-152 -119zM463 18l786 1495l187 -81l-795 -1493zM1061 170v190l358 533h269v-531h118v-192h-118v-170h-218v170h-409zM1288 362h182v275h-2z" />
<glyph unicode="&#xbd;" horiz-adv-x="1925" d="M94 1231l297 219h217v-893h-239v627l-152 -119zM463 18l786 1495l187 -81l-795 -1493zM1157 608q15 139 112.5 221t233.5 82q64 0 121.5 -17t104.5 -49.5t74.5 -86.5t27.5 -123q0 -86 -40 -146.5t-116 -128.5l-178 -155h334v-205h-653v188l348 320q59 52 59 113 q0 37 -24.5 60.5t-65.5 23.5q-46 0 -77.5 -34t-35.5 -91z" />
<glyph unicode="&#xbe;" horiz-adv-x="1925" d="M80 797l215 57q15 -48 48 -78.5t83 -30.5q47 0 81 23.5t34 71.5q0 96 -160 96h-68v172h74q133 0 133 94q0 35 -26 56.5t-68 21.5q-37 0 -66 -27t-38 -71l-216 51q32 115 126 178.5t210 63.5q62 0 117.5 -15t100 -44t70.5 -78t26 -111q0 -67 -31.5 -117.5t-85.5 -77.5 q65 -23 101 -77.5t36 -127.5q0 -71 -29.5 -126.5t-78.5 -88t-107 -49t-121 -16.5q-130 0 -227 61.5t-133 188.5zM463 18l786 1495l187 -81l-795 -1493zM1061 170v190l358 533h269v-531h118v-192h-118v-170h-218v170h-409zM1288 362h182v275h-2z" />
<glyph unicode="&#xbf;" horiz-adv-x="1118" d="M39 -39q0 66 15 118t49 97.5t70 79t97 80.5q67 52 89 89t22 99v54h319v-76q0 -100 -37 -164.5t-124 -144.5l-70 -62q-42 -38 -63 -70.5t-21 -74.5q0 -66 41.5 -106t110.5 -40q79 0 125.5 56.5t48.5 136.5l327 -37q-24 -214 -167 -328t-349 -114q-94 0 -178 24.5 t-153.5 72.5t-110.5 128t-41 182zM338 866q0 82 59 138.5t142 56.5q82 0 141 -56t59 -137q0 -80 -58.5 -137t-141.5 -57q-82 0 -141.5 56.5t-59.5 135.5z" />
<glyph unicode="&#xc0;" horiz-adv-x="1492" d="M-29 0l609 1450h340l602 -1450h-389l-113 285h-561l-107 -285h-381zM346 1860h340l213 -295h-254zM559 565h365l-181 498z" />
<glyph unicode="&#xc1;" horiz-adv-x="1492" d="M-29 0l609 1450h340l602 -1450h-389l-113 285h-561l-107 -285h-381zM559 565h365l-181 498zM602 1565l213 295h340l-299 -295h-254z" />
<glyph unicode="&#xc2;" horiz-adv-x="1492" d="M-29 0l609 1450h340l602 -1450h-389l-113 285h-561l-107 -285h-381zM348 1565l254 295h303l250 -295h-266l-139 166l-140 -166h-262zM559 565h365l-181 498z" />
<glyph unicode="&#xc3;" horiz-adv-x="1492" d="M-29 0l609 1450h340l602 -1450h-389l-113 285h-561l-107 -285h-381zM369 1575q7 56 23 101.5t42.5 83.5t69 59.5t96.5 21.5q77 0 164 -41t133 -41q65 0 86 84h145q-13 -119 -69.5 -194.5t-161.5 -75.5q-75 0 -166 43q-78 41 -129 41q-63 0 -86 -82h-147zM559 565h365 l-181 498z" />
<glyph unicode="&#xc4;" horiz-adv-x="1492" d="M-29 0l609 1450h340l602 -1450h-389l-113 285h-561l-107 -285h-381zM356 1741q0 67 50 116.5t120 49.5q71 0 121.5 -48.5t50.5 -117.5q0 -70 -50.5 -119t-121.5 -49q-70 0 -120 49.5t-50 118.5zM559 565h365l-181 498zM803 1741q0 67 49.5 116.5t120.5 49.5 q69 0 119.5 -48.5t50.5 -117.5q0 -70 -50 -119t-120 -49q-71 0 -120.5 49.5t-49.5 118.5z" />
<glyph unicode="&#xc5;" horiz-adv-x="1492" d="M-29 0l609 1450h340l602 -1450h-389l-113 285h-561l-107 -285h-381zM528 1751q0 95 65 158t159 63q93 0 158 -63t65 -156q0 -94 -65 -156.5t-158 -62.5t-158.5 62t-65.5 155zM559 565h365l-181 498zM631 1751q0 -49 35 -83t86 -34t85.5 34t34.5 85t-34.5 85t-85.5 34 q-52 0 -86.5 -35t-34.5 -86z" />
<glyph unicode="&#xc6;" horiz-adv-x="2115" d="M-8 0l848 1450h1157v-297h-611v-272h576v-281h-576v-301h648v-299h-981v313h-473l-181 -313h-407zM719 596h334v557h-21z" />
<glyph unicode="&#xc7;" horiz-adv-x="1425" d="M82 727q0 227 104.5 402t282.5 267.5t399 92.5q158 0 306.5 -56t236.5 -157l-237 -238q-48 65 -127 99t-166 34q-182 0 -300 -125.5t-118 -318.5q0 -198 114.5 -321t296.5 -123q100 0 180.5 40t127.5 107l243 -229q-91 -107 -223.5 -169t-296.5 -69l-65 -86q14 2 37 2 q41 0 75 -7.5t66 -25t50.5 -52.5t18.5 -85q0 -56 -28 -97.5t-75 -63t-96 -31t-102 -9.5q-137 0 -243 52l55 123q80 -39 172 -39q41 0 71.5 15t30.5 52q0 60 -96 60q-41 0 -82 -13l-63 60l112 151q-144 18 -266 81t-209 160.5t-136.5 230.5t-49.5 286z" />
<glyph unicode="&#xc8;" horiz-adv-x="1243" d="M150 0v1450h974v-297h-637v-272h603v-281h-603v-301h674v-299h-1011zM279 1860h339l213 -295h-253z" />
<glyph unicode="&#xc9;" horiz-adv-x="1243" d="M150 0v1450h974v-297h-637v-272h603v-281h-603v-301h674v-299h-1011zM477 1565l213 295h340l-299 -295h-254z" />
<glyph unicode="&#xca;" horiz-adv-x="1243" d="M150 0v1450h974v-297h-637v-272h603v-281h-603v-301h674v-299h-1011zM242 1565l254 295h303l250 -295h-267l-139 166l-139 -166h-262z" />
<glyph unicode="&#xcb;" horiz-adv-x="1243" d="M150 0v1450h974v-297h-637v-272h603v-281h-603v-301h674v-299h-1011zM252 1741q0 67 50 116.5t120 49.5q71 0 121.5 -48.5t50.5 -117.5q0 -70 -50.5 -119t-121.5 -49q-70 0 -120 49.5t-50 118.5zM698 1741q0 67 49.5 116.5t120.5 49.5q69 0 119.5 -48.5t50.5 -117.5 q0 -70 -50 -119t-120 -49q-72 0 -121 49.5t-49 118.5z" />
<glyph unicode="&#xcc;" horiz-adv-x="651" d="M-51 1860h340l213 -295h-254zM150 0v1450h352v-1450h-352z" />
<glyph unicode="&#xcd;" horiz-adv-x="651" d="M150 0v1450h352v-1450h-352zM150 1565l212 295h340l-299 -295h-253z" />
<glyph unicode="&#xce;" horiz-adv-x="651" d="M-80 1565l254 295h303l250 -295h-266l-139 166l-140 -166h-262zM150 0v1450h352v-1450h-352z" />
<glyph unicode="&#xcf;" horiz-adv-x="651" d="M-68 1741q0 67 50 116.5t120 49.5q71 0 121.5 -48.5t50.5 -117.5q0 -70 -50.5 -119t-121.5 -49q-70 0 -120 49.5t-50 118.5zM150 0v1450h352v-1450h-352zM379 1741q0 67 49.5 116.5t120.5 49.5q69 0 119.5 -48.5t50.5 -117.5q0 -70 -50 -119t-120 -49q-71 0 -120.5 49.5 t-49.5 118.5z" />
<glyph unicode="&#xd0;" horiz-adv-x="1585" d="M27 633v219h125v598h559q127 0 240.5 -25t214.5 -80.5t174.5 -138t116 -205t42.5 -272.5q0 -146 -45.5 -268t-122.5 -206t-179.5 -142.5t-214 -85.5t-228.5 -27h-557v633h-125zM494 307h151q110 0 198.5 24t156 73.5t104.5 132t37 192.5q0 208 -125 312t-338 104h-184 v-293h370v-219h-370v-326z" />
<glyph unicode="&#xd1;" horiz-adv-x="1617" d="M150 0v1450h399l581 -946h7l-9 946h340v-1450h-397l-584 948h-6l8 -948h-339zM436 1575q7 56 23 101.5t43 83.5t69.5 59.5t96.5 21.5q76 0 163 -41t134 -41q65 0 86 84h145q-13 -119 -69.5 -194.5t-161.5 -75.5q-75 0 -166 43q-78 41 -129 41q-63 0 -86 -82h-148z" />
<glyph unicode="&#xd2;" horiz-adv-x="1742" d="M82 731q0 228 102.5 401.5t281 265t404.5 91.5q227 0 406 -91.5t282 -265t103 -401.5q0 -226 -102.5 -402t-282.5 -272t-406 -96q-135 0 -256 35.5t-217.5 103.5t-167.5 161.5t-109 213.5t-38 256zM457 731q0 -197 115.5 -323.5t297.5 -126.5q183 0 299.5 126.5 t116.5 323.5q0 192 -116.5 317.5t-299.5 125.5t-298 -125.5t-115 -317.5zM526 1860h340l213 -295h-254z" />
<glyph unicode="&#xd3;" horiz-adv-x="1742" d="M82 731q0 228 102.5 401.5t281 265t404.5 91.5q227 0 406 -91.5t282 -265t103 -401.5q0 -226 -102.5 -402t-282.5 -272t-406 -96q-135 0 -256 35.5t-217.5 103.5t-167.5 161.5t-109 213.5t-38 256zM457 731q0 -197 115.5 -323.5t297.5 -126.5q183 0 299.5 126.5 t116.5 323.5q0 192 -116.5 317.5t-299.5 125.5t-298 -125.5t-115 -317.5zM686 1565l213 295h340l-299 -295h-254z" />
<glyph unicode="&#xd4;" horiz-adv-x="1742" d="M82 731q0 228 102.5 401.5t281 265t404.5 91.5q227 0 406 -91.5t282 -265t103 -401.5q0 -226 -102.5 -402t-282.5 -272t-406 -96q-135 0 -256 35.5t-217.5 103.5t-167.5 161.5t-109 213.5t-38 256zM457 731q0 -197 115.5 -323.5t297.5 -126.5q183 0 299.5 126.5 t116.5 323.5q0 192 -116.5 317.5t-299.5 125.5t-298 -125.5t-115 -317.5zM469 1565l254 295h303l250 -295h-266l-140 166l-139 -166h-262z" />
<glyph unicode="&#xd5;" horiz-adv-x="1742" d="M82 731q0 228 102.5 401.5t281 265t404.5 91.5q227 0 406 -91.5t282 -265t103 -401.5q0 -226 -102.5 -402t-282.5 -272t-406 -96q-135 0 -256 35.5t-217.5 103.5t-167.5 161.5t-109 213.5t-38 256zM457 731q0 -197 115.5 -323.5t297.5 -126.5q183 0 299.5 126.5 t116.5 323.5q0 192 -116.5 317.5t-299.5 125.5t-298 -125.5t-115 -317.5zM494 1575q7 56 23 101.5t42.5 83.5t69 59.5t96.5 21.5q77 0 164 -41t133 -41q65 0 86 84h145q-13 -119 -69.5 -194.5t-161.5 -75.5q-75 0 -166 43q-78 41 -129 41q-63 0 -86 -82h-147z" />
<glyph unicode="&#xd6;" horiz-adv-x="1742" d="M82 731q0 228 102.5 401.5t281 265t404.5 91.5q227 0 406 -91.5t282 -265t103 -401.5q0 -226 -102.5 -402t-282.5 -272t-406 -96q-135 0 -256 35.5t-217.5 103.5t-167.5 161.5t-109 213.5t-38 256zM457 731q0 -197 115.5 -323.5t297.5 -126.5q183 0 299.5 126.5 t116.5 323.5q0 192 -116.5 317.5t-299.5 125.5t-298 -125.5t-115 -317.5zM479 1741q0 67 50 116.5t120 49.5q71 0 121.5 -48.5t50.5 -117.5q0 -70 -50.5 -119t-121.5 -49q-70 0 -120 49.5t-50 118.5zM926 1741q0 67 49.5 116.5t120.5 49.5q69 0 119.5 -48.5t50.5 -117.5 q0 -70 -50 -119t-120 -49q-72 0 -121 49.5t-49 118.5z" />
<glyph unicode="&#xd7;" horiz-adv-x="1363" d="M129 973l193 186l362 -354l356 352l187 -178l-357 -354l367 -359l-193 -190l-362 354l-360 -354l-191 182l363 358z" />
<glyph unicode="&#xd8;" horiz-adv-x="1742" d="M80 27q31 33 91.5 99t90.5 99q-88 94 -134 223.5t-46 280.5q0 228 102.5 401.5t281 265t404.5 91.5q258 0 449 -119q29 33 89 99.5t89 99.5q23 -20 68.5 -60t68.5 -61q-33 -34 -93.5 -100.5t-82.5 -90.5q203 -206 203 -526q0 -168 -60 -311.5t-165.5 -242.5t-252 -155 t-315.5 -57h-10q-277 0 -459 141q-30 -33 -90.5 -97t-91.5 -97q-98 85 -137 117zM438 727q0 -148 64 -246q296 323 594 645q-89 60 -226 60q-197 0 -314.5 -131.5t-117.5 -327.5zM625 344q95 -76 243 -76q194 0 313 131t119 330q0 164 -77 266q-99 -108 -298.5 -325 t-299.5 -326z" />
<glyph unicode="&#xd9;" horiz-adv-x="1511" d="M135 547v903h348v-875q0 -61 15.5 -113t47 -94.5t85.5 -67t125 -24.5q72 0 126 24.5t85 67t46 94.5t15 113v875h350v-903q0 -262 -170.5 -424t-453.5 -162t-451 161.5t-168 424.5zM410 1860h340l213 -295h-254z" />
<glyph unicode="&#xda;" horiz-adv-x="1511" d="M135 547v903h348v-875q0 -61 15.5 -113t47 -94.5t85.5 -67t125 -24.5q72 0 126 24.5t85 67t46 94.5t15 113v875h350v-903q0 -262 -170.5 -424t-453.5 -162t-451 161.5t-168 424.5zM559 1565l213 295h340l-299 -295h-254z" />
<glyph unicode="&#xdb;" horiz-adv-x="1511" d="M135 547v903h348v-875q0 -61 15.5 -113t47 -94.5t85.5 -67t125 -24.5q72 0 126 24.5t85 67t46 94.5t15 113v875h350v-903q0 -262 -170.5 -424t-453.5 -162t-451 161.5t-168 424.5zM354 1565l254 295h303l250 -295h-266l-139 166l-140 -166h-262z" />
<glyph unicode="&#xdc;" horiz-adv-x="1511" d="M135 547v903h348v-875q0 -61 15.5 -113t47 -94.5t85.5 -67t125 -24.5q72 0 126 24.5t85 67t46 94.5t15 113v875h350v-903q0 -262 -170.5 -424t-453.5 -162t-451 161.5t-168 424.5zM365 1741q0 67 50 116.5t120 49.5q71 0 121.5 -48.5t50.5 -117.5q0 -70 -50.5 -119 t-121.5 -49q-70 0 -120 49.5t-50 118.5zM811 1741q0 67 49.5 116.5t120.5 49.5q69 0 119.5 -48.5t50.5 -117.5q0 -70 -50 -119t-120 -49q-71 0 -120.5 49.5t-49.5 118.5z" />
<glyph unicode="&#xdd;" horiz-adv-x="1370" d="M-41 1450h424l309 -537l309 537h410l-557 -836v-614h-350v614zM559 1565l213 295h340l-299 -295h-254z" />
<glyph unicode="&#xde;" horiz-adv-x="1310" d="M150 0v1450h350v-248h182q98 0 181 -14.5t155.5 -47.5t122.5 -83.5t79 -127t29 -173.5q0 -122 -46.5 -212.5t-128.5 -142.5t-181.5 -77t-218.5 -25h-174v-299h-350zM500 578h147q71 0 124.5 14.5t90.5 55.5t37 106q0 51 -20 85.5t-57 51.5t-77 24t-92 7h-153v-344z" />
<glyph unicode="&#xdf;" horiz-adv-x="1366" d="M131 0v1026q0 119 34 217t101 172.5t175.5 116t250.5 41.5q210 0 353 -112.5t143 -297.5q0 -111 -60.5 -194.5t-152.5 -112.5v-2q143 -28 228 -134.5t85 -264.5q0 -224 -143 -353t-381 -129q-91 0 -197 25v289q76 -27 150 -27q106 0 168.5 50.5t62.5 160.5 q0 117 -77 175.5t-199 58.5h-43v264h45q19 0 39 3t45.5 13.5t45 27.5t33 48.5t13.5 73.5q0 70 -45.5 117.5t-126.5 47.5q-47 0 -84.5 -16.5t-61 -43t-38.5 -63t-21 -74t-6 -79.5v-1024h-336z" />
<glyph unicode="&#xe0;" horiz-adv-x="1159" d="M68 295q0 344 655 344v16q0 72 -51 110t-133 38q-69 0 -136 -29.5t-116 -75.5l-170 183q88 83 207.5 127.5t246.5 44.5q253 0 361 -128t108 -411v-514h-307v109h-6q-38 -62 -117.5 -98t-171.5 -36q-65 0 -127 17t-118 52.5t-90.5 100t-34.5 150.5zM229 1466h340l213 -295 h-254zM377 305q0 -54 43 -79t102 -25q100 0 155.5 56.5t55.5 152.5v34h-43q-63 0 -112 -5t-98 -18.5t-76 -43t-27 -72.5z" />
<glyph unicode="&#xe1;" horiz-adv-x="1159" d="M68 295q0 344 655 344v16q0 72 -51 110t-133 38q-69 0 -136 -29.5t-116 -75.5l-170 183q88 83 207.5 127.5t246.5 44.5q253 0 361 -128t108 -411v-514h-307v109h-6q-38 -62 -117.5 -98t-171.5 -36q-65 0 -127 17t-118 52.5t-90.5 100t-34.5 150.5zM377 305q0 -54 43 -79 t102 -25q100 0 155.5 56.5t55.5 152.5v34h-43q-63 0 -112 -5t-98 -18.5t-76 -43t-27 -72.5zM385 1171l213 295h340l-299 -295h-254z" />
<glyph unicode="&#xe2;" horiz-adv-x="1159" d="M68 295q0 344 655 344v16q0 72 -51 110t-133 38q-69 0 -136 -29.5t-116 -75.5l-170 183q88 83 207.5 127.5t246.5 44.5q253 0 361 -128t108 -411v-514h-307v109h-6q-38 -62 -117.5 -98t-171.5 -36q-65 0 -127 17t-118 52.5t-90.5 100t-34.5 150.5zM180 1171l254 295h303 l250 -295h-266l-139 166l-140 -166h-262zM377 305q0 -54 43 -79t102 -25q100 0 155.5 56.5t55.5 152.5v34h-43q-63 0 -112 -5t-98 -18.5t-76 -43t-27 -72.5z" />
<glyph unicode="&#xe3;" horiz-adv-x="1159" d="M68 295q0 344 655 344v16q0 72 -51 110t-133 38q-69 0 -136 -29.5t-116 -75.5l-170 183q88 83 207.5 127.5t246.5 44.5q253 0 361 -128t108 -411v-514h-307v109h-6q-38 -62 -117.5 -98t-171.5 -36q-65 0 -127 17t-118 52.5t-90.5 100t-34.5 150.5zM209 1182 q7 56 23 101.5t42.5 83.5t69 59.5t96.5 21.5q77 0 164 -41t133 -41q65 0 86 84h146q-13 -119 -70 -194.5t-162 -75.5q-75 0 -166 43q-78 41 -129 41q-63 0 -86 -82h-147zM377 305q0 -54 43 -79t102 -25q100 0 155.5 56.5t55.5 152.5v34h-43q-63 0 -112 -5t-98 -18.5t-76 -43 t-27 -72.5z" />
<glyph unicode="&#xe4;" horiz-adv-x="1159" d="M68 295q0 344 655 344v16q0 72 -51 110t-133 38q-69 0 -136 -29.5t-116 -75.5l-170 183q88 83 207.5 127.5t246.5 44.5q253 0 361 -128t108 -411v-514h-307v109h-6q-38 -62 -117.5 -98t-171.5 -36q-65 0 -127 17t-118 52.5t-90.5 100t-34.5 150.5zM190 1348q0 67 50 116 t120 49q71 0 121.5 -48t50.5 -117q0 -70 -50.5 -119t-121.5 -49q-70 0 -120 49.5t-50 118.5zM377 305q0 -54 43 -79t102 -25q100 0 155.5 56.5t55.5 152.5v34h-43q-63 0 -112 -5t-98 -18.5t-76 -43t-27 -72.5zM637 1348q0 67 49.5 116t120.5 49q69 0 119.5 -48t50.5 -117 q0 -70 -50 -119t-120 -49q-71 0 -120.5 49t-49.5 119z" />
<glyph unicode="&#xe5;" horiz-adv-x="1159" d="M68 295q0 344 655 344v16q0 72 -51 110t-133 38q-69 0 -136 -29.5t-116 -75.5l-170 183q88 83 207.5 127.5t246.5 44.5q253 0 361 -128t108 -411v-514h-307v109h-6q-38 -62 -117.5 -98t-171.5 -36q-65 0 -127 17t-118 52.5t-90.5 100t-34.5 150.5zM365 1358 q0 95 64.5 158t158.5 63q93 0 158 -63t65 -156q0 -94 -65 -156.5t-158 -62.5t-158 62t-65 155zM377 305q0 -54 43 -79t102 -25q100 0 155.5 56.5t55.5 152.5v34h-43q-63 0 -112 -5t-98 -18.5t-76 -43t-27 -72.5zM467 1358q0 -49 35 -83t86 -34t86 34t35 85t-35 85t-86 34 q-52 0 -86.5 -35t-34.5 -86z" />
<glyph unicode="&#xe6;" horiz-adv-x="1841" d="M68 295q0 69 24.5 123t72 89.5t105.5 59.5t136.5 36t152 17t164.5 5v14q0 164 -182 164q-68 0 -137 -30t-117 -75l-168 183q86 83 205.5 127.5t246.5 44.5q118 0 202 -42.5t128 -107.5q59 68 148.5 109t201.5 41q228 0 370 -149t142 -406q0 -30 -4 -80h-737 q9 -85 79 -139t163 -54q150 0 225 107l231 -148q-71 -105 -189 -161t-274 -56q-120 0 -221.5 49t-161.5 136q-109 -177 -413 -177q-55 0 -108.5 10.5t-105.5 35t-91.5 60.5t-63.5 91.5t-24 122.5zM377 305q0 -54 43 -79t102 -25q100 0 155.5 50.5t55.5 139.5v33h-43 q-78 0 -131.5 -5t-96.5 -17.5t-64 -36.5t-21 -60zM1020 627h432q0 84 -52.5 139t-148.5 55q-95 0 -160 -57t-71 -137z" />
<glyph unicode="&#xe7;" horiz-adv-x="1030" d="M80 510q0 162 76.5 287t205 190.5t287.5 65.5q109 0 214 -38.5t165 -99.5l-194 -225q-28 37 -78 59.5t-101 22.5q-103 0 -169 -76.5t-66 -185.5t66 -184.5t173 -75.5q53 0 103 20t80 56l186 -228q-55 -54 -140.5 -87.5t-182.5 -41.5l-72 -92q14 2 37 2q41 0 75 -7.5 t66.5 -25t51 -52.5t18.5 -85q0 -56 -28 -97.5t-75 -63t-96 -31t-102 -9.5q-138 0 -244 52l55 123q80 -39 172 -39q41 0 72 15t31 52q0 33 -29 46.5t-68 13.5q-41 0 -82 -13l-63 60l119 157q-207 32 -335 174t-128 361z" />
<glyph unicode="&#xe8;" horiz-adv-x="1220" d="M80 506q0 163 73.5 289t198 192t279.5 66q229 0 370.5 -149t141.5 -406q0 -55 -2 -80h-740q7 -83 79 -138t165 -55q146 0 225 107l234 -148q-73 -105 -191 -161t-272 -56q-156 0 -281.5 62t-202.5 186t-77 291zM270 1466h340l213 -295h-254zM401 627h433q0 84 -52.5 139 t-148.5 55q-95 0 -160.5 -57t-71.5 -137z" />
<glyph unicode="&#xe9;" horiz-adv-x="1220" d="M80 506q0 163 73.5 289t198 192t279.5 66q229 0 370.5 -149t141.5 -406q0 -55 -2 -80h-740q7 -83 79 -138t165 -55q146 0 225 107l234 -148q-73 -105 -191 -161t-272 -56q-156 0 -281.5 62t-202.5 186t-77 291zM401 627h433q0 84 -52.5 139t-148.5 55q-95 0 -160.5 -57 t-71.5 -137zM424 1171l213 295h340l-299 -295h-254z" />
<glyph unicode="&#xea;" horiz-adv-x="1220" d="M80 506q0 163 73.5 289t198 192t279.5 66q229 0 370.5 -149t141.5 -406q0 -55 -2 -80h-740q7 -83 79 -138t165 -55q146 0 225 107l234 -148q-73 -105 -191 -161t-272 -56q-156 0 -281.5 62t-202.5 186t-77 291zM240 1171l254 295h303l250 -295h-267l-139 166l-139 -166 h-262zM401 627h433q0 84 -52.5 139t-148.5 55q-95 0 -160.5 -57t-71.5 -137z" />
<glyph unicode="&#xeb;" horiz-adv-x="1220" d="M80 506q0 163 73.5 289t198 192t279.5 66q229 0 370.5 -149t141.5 -406q0 -55 -2 -80h-740q7 -83 79 -138t165 -55q146 0 225 107l234 -148q-73 -105 -191 -161t-272 -56q-156 0 -281.5 62t-202.5 186t-77 291zM248 1348q0 67 50 116t120 49q71 0 121.5 -48t50.5 -117 q0 -70 -50.5 -119t-121.5 -49q-70 0 -120 49.5t-50 118.5zM401 627h433q0 84 -52.5 139t-148.5 55q-95 0 -160.5 -57t-71.5 -137zM694 1348q0 67 49.5 116t120.5 49q69 0 119.5 -48t50.5 -117q0 -70 -50 -119t-120 -49q-72 0 -121 49t-49 119z" />
<glyph unicode="&#xec;" horiz-adv-x="606" d="M-86 1466h340l213 -295h-254zM135 0v1020h336v-1020h-336z" />
<glyph unicode="&#xed;" horiz-adv-x="606" d="M135 0v1020h336v-1020h-336zM137 1171l213 295h340l-299 -295h-254z" />
<glyph unicode="&#xee;" horiz-adv-x="606" d="M-94 1171l254 295h303l250 -295h-267l-139 166l-139 -166h-262zM135 0v1020h336v-1020h-336z" />
<glyph unicode="&#xef;" horiz-adv-x="606" d="M-86 1348q0 67 50 116t120 49q71 0 121.5 -48t50.5 -117q0 -70 -50.5 -119t-121.5 -49q-70 0 -120 49.5t-50 118.5zM135 0v1020h336v-1020h-336zM360 1348q0 67 49.5 116t120.5 49q69 0 119.5 -48t50.5 -117q0 -70 -50 -119t-120 -49q-72 0 -121 49t-49 119z" />
<glyph unicode="&#xf0;" horiz-adv-x="1294" d="M80 512q0 159 73 281.5t195.5 186.5t272.5 64q99 0 167 -51l5 2q-105 154 -201 234l-221 -99l-164 144l223 96q-49 50 -154 121l261 145q70 -53 176 -147l231 102l178 -145l-248 -107q340 -368 340 -761q0 -281 -155.5 -446t-413.5 -165q-116 0 -219.5 38.5t-180 108 t-121 173t-44.5 225.5zM403 512q0 -107 65.5 -184.5t178.5 -77.5t178.5 77.5t65.5 184.5q0 104 -66 182t-180 78q-112 0 -177 -78t-65 -182z" />
<glyph unicode="&#xf1;" horiz-adv-x="1261" d="M131 0v1020h326v-141h4q37 71 120.5 120.5t184.5 49.5q99 0 173.5 -36t116.5 -97t62.5 -132.5t20.5 -152.5v-631h-338v557q0 215 -152 215q-85 0 -132.5 -63t-47.5 -156v-553h-338zM258 1182q7 56 23 101.5t42.5 83.5t69 59.5t96.5 21.5q77 0 164 -41t133 -41q65 0 86 84 h146q-13 -119 -70 -194.5t-162 -75.5q-74 0 -165 43q-78 41 -129 41q-63 0 -86 -82h-148z" />
<glyph unicode="&#xf2;" horiz-adv-x="1294" d="M80 514q0 122 45 224.5t122.5 170.5t180 106t217.5 38q116 0 219 -38t180.5 -106t122.5 -170.5t45 -224.5q0 -162 -77.5 -288.5t-206 -192.5t-283.5 -66q-154 0 -282 66t-205.5 192.5t-77.5 288.5zM260 1466h340l213 -295h-254zM406 514q0 -106 64.5 -185t176.5 -79 t177 79t65 185q0 105 -65.5 182.5t-178.5 77.5q-112 0 -175.5 -77t-63.5 -183z" />
<glyph unicode="&#xf3;" horiz-adv-x="1294" d="M80 514q0 122 45 224.5t122.5 170.5t180 106t217.5 38q116 0 219 -38t180.5 -106t122.5 -170.5t45 -224.5q0 -162 -77.5 -288.5t-206 -192.5t-283.5 -66q-154 0 -282 66t-205.5 192.5t-77.5 288.5zM406 514q0 -106 64.5 -185t176.5 -79t177 79t65 185q0 105 -65.5 182.5 t-178.5 77.5q-112 0 -175.5 -77t-63.5 -183zM471 1171l213 295h340l-299 -295h-254z" />
<glyph unicode="&#xf4;" horiz-adv-x="1294" d="M80 514q0 122 45 224.5t122.5 170.5t180 106t217.5 38q116 0 219 -38t180.5 -106t122.5 -170.5t45 -224.5q0 -162 -77.5 -288.5t-206 -192.5t-283.5 -66q-154 0 -282 66t-205.5 192.5t-77.5 288.5zM254 1180l248 286h295l241 -286h-258l-135 161l-135 -161h-256zM406 514 q0 -106 64.5 -185t176.5 -79t177 79t65 185q0 105 -65.5 182.5t-178.5 77.5q-112 0 -175.5 -77t-63.5 -183z" />
<glyph unicode="&#xf5;" horiz-adv-x="1294" d="M80 514q0 122 45 224.5t122.5 170.5t180 106t217.5 38q116 0 219 -38t180.5 -106t122.5 -170.5t45 -224.5q0 -162 -77.5 -288.5t-206 -192.5t-283.5 -66q-154 0 -282 66t-205.5 192.5t-77.5 288.5zM266 1182q7 56 23 101.5t43 83.5t69.5 59.5t96.5 21.5q77 0 164 -41 t133 -41q65 0 86 84h145q-13 -119 -69.5 -194.5t-161.5 -75.5q-75 0 -166 43q-78 41 -129 41q-63 0 -86 -82h-148zM406 514q0 -106 64.5 -185t176.5 -79t177 79t65 185q0 105 -65.5 182.5t-178.5 77.5q-112 0 -175.5 -77t-63.5 -183z" />
<glyph unicode="&#xf6;" horiz-adv-x="1294" d="M80 514q0 122 45 224.5t122.5 170.5t180 106t217.5 38q116 0 219 -38t180.5 -106t122.5 -170.5t45 -224.5q0 -162 -77.5 -288.5t-206 -192.5t-283.5 -66q-154 0 -282 66t-205.5 192.5t-77.5 288.5zM252 1348q0 67 50 116t120 49q71 0 121.5 -48t50.5 -117 q0 -70 -50.5 -119t-121.5 -49q-70 0 -120 49.5t-50 118.5zM406 514q0 -106 64.5 -185t176.5 -79t177 79t65 185q0 105 -65.5 182.5t-178.5 77.5q-112 0 -175.5 -77t-63.5 -183zM698 1348q0 67 49.5 116t120.5 49q69 0 119.5 -48t50.5 -117q0 -70 -50 -119t-120 -49 q-72 0 -121 49t-49 119z" />
<glyph unicode="&#xf7;" horiz-adv-x="1363" d="M162 492v260h1038v-260h-1038zM504 240q0 70 53 121t125 51t124 -51t52 -121q0 -71 -52 -122.5t-124 -51.5t-125 52t-53 122zM504 1001q0 70 53 121.5t125 51.5t124 -51t52 -122q0 -72 -52 -123t-124 -51t-125 51t-53 123z" />
<glyph unicode="&#xf8;" horiz-adv-x="1294" d="M49 31l148 145q-117 133 -117 336q0 160 76.5 285t204.5 191.5t284 66.5q193 0 328 -101l147 148l123 -119l-143 -141q112 -130 112 -330q0 -160 -76.5 -285.5t-205.5 -192.5t-285 -67q-190 0 -321 96l-154 -151zM393 520q0 -74 29 -117l340 345q-48 38 -121 38 q-114 0 -181 -79t-67 -187zM524 283q44 -41 125 -41q114 0 179 78.5t65 187.5q0 72 -27 119z" />
<glyph unicode="&#xf9;" horiz-adv-x="1257" d="M121 389v631h338v-553q0 -47 6.5 -83t22.5 -68t47 -49t75 -17q84 0 132.5 63.5t48.5 155.5v551h335v-1020h-323v141h-4q-37 -71 -120.5 -120.5t-186.5 -49.5q-99 0 -173 36t-116 97t-62 132.5t-20 152.5zM283 1466h340l213 -295h-254z" />
<glyph unicode="&#xfa;" horiz-adv-x="1257" d="M121 389v631h338v-553q0 -47 6.5 -83t22.5 -68t47 -49t75 -17q84 0 132.5 63.5t48.5 155.5v551h335v-1020h-323v141h-4q-37 -71 -120.5 -120.5t-186.5 -49.5q-99 0 -173 36t-116 97t-62 132.5t-20 152.5zM449 1171l213 295h339l-299 -295h-253z" />
<glyph unicode="&#xfb;" horiz-adv-x="1257" d="M121 389v631h338v-553q0 -47 6.5 -83t22.5 -68t47 -49t75 -17q84 0 132.5 63.5t48.5 155.5v551h335v-1020h-323v141h-4q-37 -71 -120.5 -120.5t-186.5 -49.5q-99 0 -173 36t-116 97t-62 132.5t-20 152.5zM227 1171l254 295h303l250 -295h-266l-139 166l-140 -166h-262z " />
<glyph unicode="&#xfc;" horiz-adv-x="1257" d="M121 389v631h338v-553q0 -47 6.5 -83t22.5 -68t47 -49t75 -17q84 0 132.5 63.5t48.5 155.5v551h335v-1020h-323v141h-4q-37 -71 -120.5 -120.5t-186.5 -49.5q-99 0 -173 36t-116 97t-62 132.5t-20 152.5zM236 1348q0 67 50 116t120 49q71 0 121.5 -48t50.5 -117 q0 -70 -50.5 -119t-121.5 -49q-70 0 -120 49.5t-50 118.5zM682 1348q0 67 49.5 116t120.5 49q69 0 119.5 -48t50.5 -117q0 -70 -50 -119t-120 -49q-72 0 -121 49t-49 119z" />
<glyph unicode="&#xfd;" horiz-adv-x="1161" d="M-2 1020h373l227 -655h6l203 655h356l-456 -1174q-33 -84 -69.5 -143t-89 -105t-124.5 -68t-166 -22q-90 0 -184 23l37 283q63 -19 108 -19q73 0 109 32t63 105l33 84zM446 1171l213 295h340l-299 -295h-254z" />
<glyph unicode="&#xfe;" horiz-adv-x="1349" d="M135 -492v2040h334v-637h6q116 138 311 138q108 0 200 -43.5t153 -117t95 -170.5t34 -204q0 -145 -56 -267t-168.5 -199t-261.5 -77q-95 0 -180 39.5t-129 104.5h-4v-607h-334zM457 512q0 -105 68 -183.5t177 -78.5q77 0 133 39t82.5 97.5t26.5 127.5q0 106 -64 183 t-178 77q-109 0 -177 -79.5t-68 -182.5z" />
<glyph unicode="&#xff;" horiz-adv-x="1161" d="M-2 1020h373l227 -655h6l203 655h356l-456 -1174q-33 -84 -69.5 -143t-89 -105t-124.5 -68t-166 -22q-90 0 -184 23l37 283q63 -19 108 -19q73 0 109 32t63 105l33 84zM207 1348q0 67 50 116t120 49q71 0 121.5 -48t50.5 -117q0 -70 -50.5 -119t-121.5 -49 q-70 0 -120 49.5t-50 118.5zM653 1348q0 67 49.5 116t120.5 49q69 0 119.5 -48t50.5 -117q0 -70 -50 -119t-120 -49q-71 0 -120.5 49t-49.5 119z" />
<glyph unicode="&#x152;" horiz-adv-x="2086" d="M82 727q0 154 46.5 278t124.5 206t185.5 136.5t223.5 78.5t243 24h1065v-297h-610v-272h575v-281h-575v-301h645v-299h-1100q-127 0 -243.5 24.5t-223 80.5t-185 138.5t-125 206.5t-46.5 277zM455 721q0 -90 26.5 -162.5t70.5 -120t105 -79.5t127.5 -46t139.5 -14h102 v854h-94q-78 0 -144.5 -12t-129 -43t-106.5 -78.5t-70.5 -124t-26.5 -174.5z" />
<glyph unicode="&#x153;" horiz-adv-x="1992" d="M80 514q0 162 76 286t203 188.5t282 64.5q121 0 222.5 -49t160.5 -130q68 80 166.5 129.5t216.5 49.5q227 0 367.5 -149t140.5 -406q0 -55 -2 -80h-739q10 -85 80.5 -139t162.5 -54q146 0 225 107l232 -148q-71 -105 -189 -161t-272 -56q-126 0 -229 46.5t-162 123.5 q-62 -79 -160 -124.5t-221 -45.5q-116 0 -218 38.5t-178.5 108.5t-120.5 173.5t-44 226.5zM406 514q0 -108 63.5 -186t175.5 -78t177 78.5t65 185.5q0 104 -65 182t-177 78t-175.5 -77.5t-63.5 -182.5zM1174 627h432q0 84 -52.5 139t-148.5 55q-95 0 -160 -57t-71 -137z" />
<glyph unicode="&#x178;" horiz-adv-x="1370" d="M-41 1450h424l309 -537l309 537h410l-557 -836v-614h-350v614zM299 1741q0 67 50 116.5t120 49.5q71 0 121.5 -48.5t50.5 -117.5q0 -70 -50.5 -119t-121.5 -49q-70 0 -120 49.5t-50 118.5zM745 1741q0 67 49.5 116.5t120.5 49.5q69 0 119.5 -48.5t50.5 -117.5 q0 -70 -50 -119t-120 -49q-71 0 -120.5 49.5t-49.5 118.5z" />
<glyph unicode="&#x2c6;" horiz-adv-x="614" d="M-96 1171l254 295h303l250 -295h-267l-139 166l-139 -166h-262z" />
<glyph unicode="&#x2dc;" horiz-adv-x="614" d="M-74 1182q7 56 23 101.5t43 83.5t69.5 59.5t96.5 21.5q77 0 164 -41t133 -41q65 0 86 84h145q-13 -119 -69.5 -194.5t-161.5 -75.5q-75 0 -166 43q-78 41 -129 41q-63 0 -86 -82h-148z" />
<glyph unicode="&#x2000;" horiz-adv-x="986" />
<glyph unicode="&#x2001;" horiz-adv-x="1972" />
<glyph unicode="&#x2002;" horiz-adv-x="986" />
<glyph unicode="&#x2003;" horiz-adv-x="1972" />
<glyph unicode="&#x2004;" horiz-adv-x="657" />
<glyph unicode="&#x2005;" horiz-adv-x="493" />
<glyph unicode="&#x2006;" horiz-adv-x="328" />
<glyph unicode="&#x2007;" horiz-adv-x="328" />
<glyph unicode="&#x2008;" horiz-adv-x="246" />
<glyph unicode="&#x2009;" horiz-adv-x="394" />
<glyph unicode="&#x200a;" horiz-adv-x="109" />
<glyph unicode="&#x2010;" horiz-adv-x="667" d="M74 403v267h520v-267h-520z" />
<glyph unicode="&#x2011;" horiz-adv-x="667" d="M74 403v267h520v-267h-520z" />
<glyph unicode="&#x2012;" horiz-adv-x="667" d="M74 403v267h520v-267h-520z" />
<glyph unicode="&#x2013;" horiz-adv-x="819" d="M61 430v211h697v-211h-697z" />
<glyph unicode="&#x2014;" horiz-adv-x="1228" d="M61 428v213h1106v-213h-1106z" />
<glyph unicode="&#x2018;" horiz-adv-x="614" d="M86 895l186 555h258l-147 -555h-297z" />
<glyph unicode="&#x2019;" horiz-adv-x="614" d="M84 895l147 555h297l-186 -555h-258z" />
<glyph unicode="&#x201a;" horiz-adv-x="614" d="M82 -258l147 555h297l-186 -555h-258z" />
<glyph unicode="&#x201c;" horiz-adv-x="1038" d="M86 895l186 555h258l-151 -555h-293zM514 895l182 555h258l-145 -555h-295z" />
<glyph unicode="&#x201d;" horiz-adv-x="1038" d="M84 895l147 555h293l-182 -555h-258zM508 895l151 555h293l-184 -555h-260z" />
<glyph unicode="&#x201e;" horiz-adv-x="1038" d="M82 -258l147 555h293l-182 -555h-258zM506 -258l151 555h293l-184 -555h-260z" />
<glyph unicode="&#x2022;" horiz-adv-x="1024" d="M150 725q0 151 105.5 256.5t256.5 105.5t256.5 -105.5t105.5 -256.5t-105.5 -257t-256.5 -106t-256.5 106t-105.5 257z" />
<glyph unicode="&#x2026;" horiz-adv-x="2048" d="M135 178q0 83 61 143t146 60q84 0 144.5 -58.5t60.5 -142.5t-60 -142t-145 -58q-84 0 -145.5 57t-61.5 141zM815 178q0 83 61.5 143t147.5 60q84 0 144.5 -58.5t60.5 -142.5t-60.5 -142t-144.5 -58q-85 0 -147 57.5t-62 140.5zM1497 178q0 83 61.5 143t147.5 60 q84 0 144.5 -58.5t60.5 -142.5t-60.5 -142t-144.5 -58q-85 0 -147 57.5t-62 140.5z" />
<glyph unicode="&#x202f;" horiz-adv-x="394" />
<glyph unicode="&#x2039;" horiz-adv-x="651" d="M51 520l330 475l199 -129l-236 -346l238 -346l-201 -129z" />
<glyph unicode="&#x203a;" horiz-adv-x="651" d="M70 866l200 129l330 -477l-330 -473l-198 129l235 344z" />
<glyph unicode="&#x205f;" horiz-adv-x="493" />
<glyph unicode="&#x20ac;" d="M43 442l70 211h92q-2 25 -2 72q0 37 6 74h-160l74 213h117q66 223 248 350t434 127q90 0 182.5 -17t150.5 -45l-100 -258q-91 48 -244 48q-109 0 -202.5 -54.5t-128.5 -150.5h542l-71 -213h-529q-4 -25 -4 -76q0 -47 2 -70h494l-70 -211h-381q28 -89 122 -146.5 t216 -57.5q152 0 260 63l76 -260q-139 -80 -360 -80q-258 0 -423.5 132.5t-222.5 348.5h-188z" />
<glyph unicode="&#x2122;" horiz-adv-x="2048" d="M82 1255v195h709v-195h-242v-649h-225v649h-242zM944 606v844h307l195 -532l188 532h308v-844h-218v531h-4l-198 -531h-162l-197 531h-4v-531h-215z" />
<glyph unicode="&#x25fc;" horiz-adv-x="1024" d="M0 0v1024h1024v-1024h-1024z" />
</font>
</defs>
</svg>
